<svg width="111" height="32" viewBox="0 0 111 32" fill="none" xmlns="http://www.w3.org/2000/svg">
<path d="M33.4021 12.7425C32.7095 12.3496 31.9315 12.1543 31.0681 12.1543C30.2047 12.1543 29.4392 12.3507 28.7421 12.7425C28.0438 13.1353 27.4891 13.6752 27.079 14.3633C26.6689 15.0514 26.4639 15.836 26.4639 16.7171C26.4639 17.5982 26.6723 18.3863 27.087 19.0801C27.5027 19.774 28.0597 20.3196 28.758 20.7171C29.4563 21.1146 30.2263 21.3133 31.0681 21.3133C31.9099 21.3133 32.6936 21.1146 33.3862 20.7171C34.0787 20.3196 34.6335 19.774 35.0492 19.0801C35.465 18.3863 35.6723 17.5994 35.6723 16.7171C35.6723 15.8349 35.4673 15.0514 35.0572 14.3633C34.6471 13.6752 34.0947 13.1353 33.4021 12.7425ZM33.1618 18.1048C32.9488 18.5023 32.6628 18.8148 32.3063 19.0399C31.9486 19.2662 31.5363 19.3788 31.067 19.3788C30.5977 19.3788 30.1796 19.2662 29.8117 19.0399C29.4437 18.8148 29.159 18.5 28.9562 18.0968C28.7535 17.6936 28.6521 17.2341 28.6521 16.7183C28.6521 16.2025 28.7557 15.7671 28.9642 15.38C29.1726 14.9929 29.4574 14.6838 29.8197 14.4529C30.1819 14.222 30.5977 14.106 31.067 14.106C31.5363 14.106 31.952 14.222 32.3143 14.4529C32.6765 14.6838 32.9624 14.9963 33.1697 15.388C33.3782 15.7809 33.4818 16.2289 33.4818 16.7344C33.4818 17.2398 33.3748 17.7074 33.1618 18.1048Z" fill="#7E7E81"/>
<path d="M43.6098 12.7666C42.9435 12.3576 42.1996 12.1543 41.3795 12.1543C40.7188 12.1543 40.1299 12.2864 39.6127 12.5495C39.2061 12.7562 38.8689 13.0262 38.5978 13.3559V12.3484H36.5987V24.346H38.7094V20.2783C38.9669 20.554 39.2722 20.7768 39.6287 20.9434C40.1561 21.1904 40.7348 21.3144 41.3635 21.3144C42.2053 21.3144 42.9571 21.1134 43.6178 20.7102C44.2785 20.307 44.8013 19.7567 45.1852 19.0571C45.5691 18.3587 45.7605 17.5844 45.7605 16.7344C45.7605 15.8843 45.5691 15.1008 45.1852 14.4127C44.8013 13.7246 44.2762 13.1767 43.6098 12.7677V12.7666ZM43.2738 18.1037C43.0654 18.5011 42.7749 18.8102 42.4024 19.0307C42.0288 19.2513 41.6027 19.3616 41.1232 19.3616C40.6755 19.3616 40.2654 19.2513 39.8918 19.0307C39.5182 18.8102 39.2277 18.5011 39.0204 18.1037C38.812 17.7062 38.7083 17.249 38.7083 16.7332C38.7083 16.2174 38.812 15.7763 39.0204 15.3788C39.2289 14.9814 39.5159 14.6689 39.8839 14.4438C40.2518 14.2175 40.6596 14.1049 41.1072 14.1049C41.5971 14.1049 42.0265 14.2209 42.3944 14.4518C42.7624 14.6827 43.0528 14.9952 43.2658 15.3869C43.4788 15.7798 43.5859 16.2278 43.5859 16.7332C43.5859 17.2387 43.4823 17.7062 43.2738 18.1037Z" fill="#7E7E81"/>
<path d="M53.7002 12.7667C53.0339 12.3577 52.29 12.1544 51.4699 12.1544C50.8092 12.1544 50.2203 12.2865 49.7031 12.5496C49.2965 12.7564 48.9593 13.0263 48.6882 13.356V12.3486H46.6891V24.3461H48.7998V20.2784C49.0573 20.5541 49.3626 20.7769 49.7191 20.9435C50.2465 21.1905 50.8252 21.3146 51.4539 21.3146C52.2957 21.3146 53.0475 21.1135 53.7082 20.7103C54.3689 20.3071 54.8917 19.7569 55.2756 19.0573C55.6595 18.3588 55.8509 17.5846 55.8509 16.7345C55.8509 15.8844 55.6595 15.101 55.2756 14.4129C54.8917 13.7248 54.3666 13.1768 53.7002 12.7679V12.7667ZM53.3642 18.1038C53.1557 18.5013 52.8653 18.8103 52.4928 19.0308C52.1192 19.2514 51.6931 19.3617 51.2136 19.3617C50.7659 19.3617 50.3558 19.2514 49.9822 19.0308C49.6086 18.8103 49.3181 18.5013 49.1108 18.1038C48.9024 17.7063 48.7987 17.2491 48.7987 16.7333C48.7987 16.2176 48.9024 15.7764 49.1108 15.379C49.3193 14.9815 49.6063 14.669 49.9742 14.4439C50.3422 14.2176 50.75 14.105 51.1976 14.105C51.6874 14.105 52.1169 14.221 52.4848 14.4519C52.8527 14.6828 53.1432 14.9953 53.3562 15.387C53.5692 15.7799 53.6763 16.2279 53.6763 16.7333C53.6763 17.2388 53.5727 17.7063 53.3642 18.1038Z" fill="#7E7E81"/>
<path d="M62.4078 12.5495C61.8644 12.2864 61.2345 12.1543 60.5214 12.1543C59.9348 12.1543 59.3914 12.2508 58.8902 12.4449C58.389 12.6379 57.955 12.9044 57.5871 13.2433C57.2192 13.5822 56.9504 13.9831 56.7795 14.4449L58.4904 15.2835C58.6601 14.8964 58.9164 14.5816 59.2582 14.3404C59.5988 14.098 59.9883 13.9774 60.4257 13.9774C60.9156 13.9774 61.3074 14.1014 61.6013 14.3484C61.894 14.5954 62.041 14.9079 62.041 15.2835V15.5672L59.4347 15.9934C58.7638 16.1014 58.2034 16.2841 57.7557 16.5414C57.308 16.7998 56.9743 17.1192 56.7567 17.5006C56.538 17.882 56.4286 18.3093 56.4286 18.7826C56.4286 19.2984 56.5505 19.7452 56.7966 20.1209C57.0415 20.4977 57.3912 20.7895 57.8434 20.9997C58.2968 21.2088 58.8264 21.3144 59.4347 21.3144C59.9143 21.3144 60.3483 21.2501 60.7379 21.1215C61.1274 20.9928 61.476 20.7987 61.7847 20.5413C61.9145 20.4333 62.0364 20.3127 62.1526 20.1864V21.1226H64.1358V15.2846C64.1358 14.6724 63.9843 14.129 63.6801 13.6557C63.376 13.1824 62.9523 12.8148 62.4089 12.5506L62.4078 12.5495ZM61.7608 18.6287C61.574 18.9572 61.3131 19.2168 60.9771 19.411C60.641 19.604 60.2549 19.7016 59.8175 19.7016C59.4757 19.7016 59.191 19.6108 58.962 19.427C58.733 19.2444 58.618 19.0077 58.618 18.7171C58.618 18.4058 58.7194 18.1531 58.9221 17.9589C59.1249 17.7648 59.4336 17.6361 59.8494 17.5718L62.0398 17.1824V17.5557C62.0398 17.9429 61.9464 18.3001 61.7608 18.6275V18.6287Z" fill="#7E7E81"/>
<path d="M72.0632 19.3658C71.7431 19.3658 71.472 19.3118 71.2476 19.205C71.0244 19.0982 70.8615 18.9442 70.7601 18.7455C70.6587 18.5468 70.6086 18.2917 70.6086 17.9793V14.2378H72.6236V12.3515H70.6086V10.3516H68.4978V11.0132C68.4978 11.4544 68.3805 11.7875 68.1458 12.0127C67.9112 12.239 67.5809 12.3515 67.1548 12.3515H66.9954V14.2378H68.499V18.1079C68.499 19.0867 68.7712 19.8494 69.3146 20.3974C69.8579 20.9453 70.62 21.2199 71.6007 21.2199C71.7602 21.2199 71.939 21.2119 72.1361 21.1958C72.3332 21.1797 72.5018 21.1602 72.6396 21.1395V19.3176C72.5439 19.3279 72.4448 19.3394 72.3434 19.3497C72.242 19.3601 72.1486 19.3658 72.0632 19.3658Z" fill="#7E7E81"/>
<path d="M76.3509 12.6291C76.0285 12.8163 75.7723 13.1162 75.5832 13.5286V12.3465H73.584V21.1184H75.6948V16.2327C75.6948 15.5664 75.8782 15.0507 76.2461 14.6842C76.614 14.3189 77.0913 14.1363 77.6768 14.1363H78.4286V12.25H77.9172C77.31 12.25 76.7872 12.3764 76.3498 12.6291H76.3509Z" fill="#7E7E81"/>
<path d="M84.5522 12.5495C84.0088 12.2864 83.3789 12.1543 82.6658 12.1543C82.0792 12.1543 81.5359 12.2508 81.0346 12.4449C80.5334 12.6379 80.0994 12.9044 79.7315 13.2433C79.3636 13.5822 79.0948 13.9831 78.9239 14.4449L80.6348 15.2835C80.8057 14.8964 81.0608 14.5816 81.4026 14.3404C81.7432 14.098 82.1327 13.9774 82.5702 13.9774C83.06 13.9774 83.4518 14.1014 83.7457 14.3484C84.0384 14.5954 84.1854 14.9079 84.1854 15.2835V15.5672L81.5791 15.9934C80.9082 16.1014 80.3478 16.2841 79.9001 16.5414C79.4524 16.7987 79.1187 17.1192 78.9011 17.5006C78.6824 17.882 78.5731 18.3093 78.5731 18.7826C78.5731 19.2984 78.6949 19.7452 78.941 20.1209C79.1859 20.4977 79.5356 20.7895 79.9878 20.9997C80.4412 21.2088 80.9709 21.3144 81.5791 21.3144C82.0587 21.3144 82.4927 21.2501 82.8823 21.1215C83.2718 20.9928 83.6204 20.7987 83.9291 20.5413C84.059 20.4333 84.1808 20.3127 84.297 20.1864V21.1226H86.2802V15.2846C86.2802 14.6724 86.1287 14.129 85.8246 13.6557C85.5204 13.1824 85.0967 12.8148 84.5533 12.5506L84.5522 12.5495ZM83.9052 18.6287C83.7184 18.9572 83.4575 19.2168 83.1215 19.411C82.7854 19.604 82.3993 19.7016 81.9619 19.7016C81.6201 19.7016 81.3354 19.6108 81.1064 19.427C80.8775 19.2444 80.7624 19.0077 80.7624 18.7171C80.7624 18.4058 80.8638 18.1531 81.0665 17.9589C81.2693 17.7648 81.578 17.6361 81.9938 17.5718L84.1843 17.1824V17.5557C84.1843 17.9429 84.0908 18.3001 83.904 18.6275L83.9052 18.6287Z" fill="#7E7E81"/>
<path d="M93.0262 12.3477L90.9645 18.042L88.9016 12.3477H86.6143L90.0202 21.1195H91.8917L95.3135 12.3477H93.0262Z" fill="#7E7E81"/>
<path d="M102.757 13.4283C102.4 13.0308 101.96 12.7183 101.438 12.4932C100.915 12.2669 100.314 12.1543 99.6316 12.1543C98.8217 12.1543 98.0881 12.3507 97.4331 12.7425C96.7781 13.1353 96.2576 13.6752 95.8737 14.3633C95.4898 15.0514 95.2985 15.836 95.2985 16.7171C95.2985 17.5982 95.4853 18.3403 95.8578 19.0388C96.2314 19.7372 96.7531 20.2909 97.4252 20.6999C98.0972 21.1088 98.8798 21.3121 99.7763 21.3121C100.373 21.3121 100.922 21.2202 101.423 21.0376C101.925 20.8549 102.359 20.5999 102.727 20.2714C103.094 19.944 103.358 19.5752 103.518 19.1663L101.823 18.3277C101.632 18.6608 101.368 18.9319 101.032 19.1422C100.696 19.3512 100.288 19.4569 99.8081 19.4569C99.3286 19.4569 98.9048 19.342 98.5369 19.11C98.169 18.8791 97.8922 18.5597 97.7054 18.1508C97.5937 17.9072 97.5243 17.6384 97.4946 17.3444H103.757C103.789 17.226 103.815 17.0859 103.837 16.9251C103.859 16.7642 103.869 16.6023 103.869 16.4414C103.869 15.8498 103.773 15.2996 103.581 14.7884C103.389 14.2783 103.115 13.8234 102.757 13.426V13.4283ZM98.464 14.2427C98.7944 14.0222 99.1839 13.9119 99.6316 13.9119C100.079 13.9119 100.469 14.0245 100.799 14.2508C101.13 14.4771 101.366 14.7803 101.511 15.1617C101.576 15.3352 101.615 15.5213 101.628 15.7177H97.5505C97.5869 15.5328 97.6393 15.3616 97.7054 15.2019C97.8808 14.7826 98.1348 14.4633 98.4652 14.2427H98.464Z" fill="#7E7E81"/>
<path d="M106.907 8.91406H104.796V21.1218H106.907V8.91406Z" fill="#7E7E81"/>
<path d="M7.73202 6.16683C6.3446 7.56601 5.58026 9.42699 5.58026 11.4063C5.58026 13.3856 6.3446 15.2466 7.73202 16.6457L11.3031 20.2482L10.1993 21.3614C8.69569 22.8777 8.69569 25.3464 10.1993 26.8627C10.9511 27.6209 11.9398 28 12.9274 28C13.915 28 14.9038 27.6209 15.6556 26.8627C17.1592 25.3464 17.1592 22.8777 15.6556 21.3614L14.5518 20.2482L18.1229 16.6457C19.5103 15.2466 20.2746 13.3856 20.2746 11.4063C20.2746 9.42699 19.5103 7.56601 18.1229 6.16683C15.258 3.27772 10.5968 3.27772 7.73088 6.16683H7.73202ZM14.0688 22.9616C14.6987 23.5968 14.6987 24.6296 14.0688 25.2637C13.44 25.8978 12.4148 25.8978 11.7861 25.2637C11.1561 24.6284 11.1561 23.5957 11.7861 22.9616L12.8899 21.8484L12.9274 21.8863L12.965 21.8484L14.0688 22.9616ZM16.5361 15.0467L12.965 18.648L12.9274 18.6101L12.8899 18.648L9.31878 15.0467C8.3551 14.0748 7.82315 12.7813 7.82315 11.4074C7.82315 10.0335 8.35396 8.74004 9.31878 7.76819C10.3144 6.76418 11.6209 6.26333 12.9274 6.26333C14.234 6.26333 15.5417 6.76533 16.5361 7.76819C17.4998 8.74004 18.0317 10.0335 18.0317 11.4074C18.0317 12.7813 17.5009 14.0748 16.5361 15.0467Z" fill="#7E7E81"/>
</svg>
