<svg width="129" height="32" viewBox="0 0 129 32" fill="none" xmlns="http://www.w3.org/2000/svg">
<path d="M23.6283 11.7448C23.6283 14.0943 21.7247 15.9979 19.3751 15.9979C21.7247 15.9979 23.6283 17.9015 23.6283 20.2511C23.6283 17.9015 25.5319 15.9979 27.8814 15.9979C25.5319 15.9979 23.6283 14.0943 23.6283 11.7448Z" fill="#7E7E81"/>
<path d="M35.4829 16C35.9375 15.3448 36.3024 14.6235 36.5606 13.8553C36.8509 12.9931 37.0067 12.0691 37.0067 11.1088C37.0088 6.4672 33.334 2.68353 28.7372 2.50854C28.6262 2.50427 28.5131 2.5 28.4 2.5C28.1866 2.5 27.9754 2.50854 27.7641 2.52347C27.2797 2.55762 26.8059 2.63445 26.3471 2.74755C26.0568 3.50087 25.8584 4.299 25.7645 5.12915C25.7346 5.38097 25.7154 5.63705 25.7069 5.89527C25.7026 6.01051 25.7005 6.13002 25.7005 6.24739C25.7005 7.02419 25.7922 7.77964 25.9629 8.50308C26.2468 9.70455 26.7547 10.8207 27.4376 11.8045C27.5421 11.956 27.651 12.1032 27.7641 12.2483C27.779 12.2675 27.794 12.2868 27.8089 12.306C28.4235 13.0785 29.1512 13.7571 29.9686 14.3141C30.6152 13.9961 31.153 13.4882 31.5072 12.8629C31.5115 12.8587 31.5136 12.8544 31.5157 12.8501C29.6335 11.7255 28.2741 9.81979 27.8836 7.58117C27.8089 7.14796 27.7683 6.70408 27.7683 6.24953C27.7683 5.67973 27.8302 5.12702 27.9476 4.5935C28.097 4.58283 28.2485 4.57643 28.4 4.57643C32.0087 4.57643 34.9345 7.50221 34.9345 11.1109C34.9345 12.0904 34.719 13.0209 34.3327 13.8531C34.2473 14.0388 34.1534 14.2202 34.0489 14.3952C33.7714 14.8732 33.4343 15.3107 33.048 15.7012C32.9456 15.8058 32.841 15.9061 32.7321 16C32.4142 16.2817 32.0685 16.5335 31.6993 16.7491C31.6993 16.7491 31.6993 16.7491 31.6971 16.7491C31.3984 16.924 31.0847 17.0756 30.756 17.2015C30.756 17.2015 30.756 17.2015 30.7539 17.2015C29.6143 17.8289 28.6134 18.6782 27.811 19.6919C27.7961 19.7111 27.7812 19.7303 27.7662 19.7495C27.6531 19.8946 27.5443 20.0419 27.4397 20.1934C26.3449 21.7705 25.7026 23.6847 25.7026 25.7505C25.7026 25.8678 25.7047 25.9852 25.709 26.1026C25.7175 26.3608 25.7367 26.6169 25.7666 26.8687C25.8605 27.6989 26.0611 28.497 26.3492 29.2503C26.808 29.3634 27.2818 29.4381 27.7662 29.4744C27.9754 29.4893 28.1888 29.4979 28.4022 29.4979C28.5153 29.4979 28.6262 29.4957 28.7393 29.4893C33.3382 29.3143 37.0109 25.5307 37.0109 20.8891C37.0109 19.9288 36.853 19.0047 36.5649 18.1426C36.3067 17.3722 35.9418 16.653 35.4872 15.9979M28.4043 27.4236C28.2528 27.4236 28.1013 27.4193 27.9519 27.4086C27.8345 26.8751 27.7726 26.3224 27.7726 25.7526C27.7726 22.9122 29.3134 20.4303 31.6054 19.1008C31.9426 18.9044 32.2925 18.7337 32.6596 18.5929C32.6596 18.5929 32.6596 18.5929 32.6617 18.5929C33.159 18.3112 33.6242 17.9783 34.0531 17.6069C34.1556 17.7819 34.2516 17.9633 34.337 18.149C34.7232 18.9834 34.9388 19.9117 34.9388 20.8912C34.9388 24.4999 32.013 27.4257 28.4043 27.4257" fill="#7E7E81"/>
<path d="M19.819 20.1955C19.7144 20.0418 19.6035 19.8946 19.4904 19.7495C19.4754 19.7303 19.4626 19.7132 19.4477 19.6961C18.8331 18.9236 18.1054 18.245 17.288 17.688C16.6414 18.0059 16.1036 18.5139 15.7494 19.1391C15.7451 19.1434 15.743 19.1477 15.7408 19.1519C17.6231 20.2766 18.9825 22.1823 19.373 24.423C19.4477 24.8562 19.4882 25.3001 19.4882 25.7547C19.4882 26.3223 19.4263 26.8772 19.309 27.4107C19.1596 27.4214 19.0081 27.4278 18.8565 27.4278C15.2479 27.4278 12.3221 24.502 12.3221 20.8933C12.3221 19.9138 12.5376 18.9833 12.9239 18.1511C13.0114 17.9654 13.1031 17.784 13.2077 17.609C13.4851 17.131 13.8223 16.6935 14.2086 16.303C14.311 16.1984 14.4156 16.0981 14.5244 16.0042C14.8424 15.7204 15.1903 15.4686 15.5594 15.253C15.8582 15.078 16.174 14.9244 16.5027 14.7985C17.6423 14.1711 18.6431 13.3217 19.4455 12.308C19.4605 12.291 19.4733 12.2739 19.4882 12.2547C19.6013 12.1096 19.7123 11.9602 19.8169 11.8065C20.9116 10.2295 21.554 8.31523 21.554 6.24947C21.554 6.13209 21.5519 6.01472 21.5476 5.89735C21.5391 5.63913 21.5198 5.38304 21.49 5.13122C21.3961 4.30108 21.1955 3.50294 20.9074 2.74962C20.4464 2.63652 19.9727 2.56183 19.4882 2.52555C19.2791 2.51061 19.0678 2.50208 18.8544 2.50208C18.7413 2.50208 18.6303 2.50421 18.5172 2.51061C13.9226 2.68347 10.2499 6.46714 10.2499 11.1087C10.2499 12.069 10.4078 12.9931 10.6959 13.8552C10.9542 14.6256 11.3191 15.3448 11.7736 15.9999C11.3191 16.6551 10.9542 17.3764 10.6959 18.1447C10.4057 19.0068 10.2499 19.9309 10.2499 20.8912C10.2499 25.5327 13.9226 29.3164 18.5215 29.4914C18.6325 29.4957 18.7456 29.4999 18.8587 29.4999C19.0721 29.4999 19.2812 29.4914 19.4925 29.4765C19.9769 29.4423 20.4507 29.3655 20.9116 29.2524C21.2019 28.4991 21.4003 27.7009 21.4942 26.8708C21.5241 26.619 21.5433 26.3629 21.5519 26.1047C21.5561 25.9894 21.5583 25.8699 21.5583 25.7525C21.5583 24.9758 21.4665 24.2203 21.2958 23.4969C21.0119 22.2954 20.504 21.1793 19.8211 20.1955M18.8587 4.57424C19.0102 4.57424 19.1617 4.58064 19.3111 4.59131C19.4285 5.12482 19.4904 5.67754 19.4904 6.24733C19.4904 9.08775 17.9496 11.5697 15.6576 12.8992C15.3204 13.0955 14.9704 13.2662 14.6034 13.4071C14.6034 13.4071 14.6034 13.4071 14.6013 13.4071C14.104 13.6888 13.6388 14.0217 13.2099 14.393C13.1074 14.218 13.0135 14.0366 12.926 13.851C12.5398 13.0165 12.3242 12.0882 12.3242 11.1087C12.3242 7.50002 15.25 4.57424 18.8587 4.57424Z" fill="#7E7E81"/>
<path d="M38.4194 29.4744C38.1569 29.4744 37.9222 29.4147 37.7087 29.293C37.4975 29.1714 37.331 29.0071 37.2094 28.7979C37.0877 28.5888 37.028 28.354 37.028 28.0915C37.028 27.8291 37.0899 27.5964 37.2136 27.3894C37.3374 27.1824 37.5039 27.0181 37.713 26.8965C37.9222 26.7748 38.1569 26.7151 38.4194 26.7151C38.6819 26.7151 38.9166 26.7748 39.1258 26.8965C39.3349 27.0181 39.5013 27.1824 39.6209 27.3894C39.7425 27.5964 39.8022 27.8312 39.8022 28.0915C39.8022 28.3519 39.7404 28.5888 39.6209 28.7979C39.4992 29.0071 39.3349 29.1714 39.1279 29.293C38.9209 29.4147 38.684 29.4744 38.4173 29.4744M38.4173 29.2759C38.6413 29.2759 38.8419 29.2247 39.0191 29.1223C39.1983 29.0199 39.337 28.879 39.4395 28.6976C39.5419 28.5162 39.5931 28.3156 39.5931 28.0915C39.5931 27.8675 39.5419 27.6669 39.4395 27.4897C39.337 27.3105 39.1962 27.1718 39.0191 27.0693C38.8419 26.9669 38.6392 26.9157 38.4173 26.9157C38.1953 26.9157 37.9926 26.9669 37.8154 27.0693C37.6362 27.1718 37.4975 27.3126 37.395 27.4897C37.2926 27.669 37.2414 27.8696 37.2414 28.0915C37.2414 28.3135 37.2926 28.5162 37.395 28.6976C37.4975 28.879 37.6383 29.0199 37.8154 29.1223C37.9926 29.2247 38.1953 29.2759 38.4173 29.2759ZM38.1249 28.847H37.9029V27.3062H38.4599C38.6264 27.3062 38.7587 27.3489 38.859 27.43C38.9593 27.5132 39.0084 27.6285 39.0084 27.7757C39.0084 27.876 38.9828 27.9635 38.9294 28.0403C38.8782 28.1172 38.7971 28.1726 38.6861 28.2111L39.0361 28.8449H38.7864L38.4727 28.2601H38.1228V28.8449L38.1249 28.847ZM38.7736 27.7842C38.7736 27.6029 38.6669 27.5132 38.4535 27.5132H38.1249V28.0553H38.4535C38.5538 28.0553 38.6328 28.0318 38.6883 27.987C38.7459 27.9422 38.7736 27.8739 38.7736 27.7842Z" fill="#7E7E81"/>
<path d="M58.0612 3.39419C58.1828 3.24267 58.3343 3.19786 58.5179 3.26188C58.6993 3.32803 58.791 3.45821 58.791 3.65028V13.7977C58.791 13.8532 58.7654 13.8809 58.7121 13.8809H57.7773C57.6386 13.8809 57.5191 13.8318 57.421 13.7315C57.3228 13.6312 57.2737 13.5096 57.2737 13.3709V6.80654L53.4324 11.5975C53.4175 11.6167 53.3961 11.6274 53.3705 11.6274C53.3428 11.6274 53.3214 11.6167 53.3065 11.5975L49.4695 6.80654V13.7977C49.4695 13.8532 49.4417 13.8809 49.3863 13.8809H48.0269C47.9735 13.8809 47.9479 13.8532 47.9479 13.7977V3.64814C47.9479 3.45608 48.0397 3.3259 48.2211 3.25974C48.4025 3.19572 48.5561 3.24054 48.6778 3.39206L53.3727 9.24576L58.0654 3.39206L58.0612 3.39419Z" fill="#7E7E81"/>
<path d="M67.6004 7.18214C67.9568 7.53853 68.2022 7.93119 68.3366 8.36014C68.4881 8.84457 68.4647 9.29699 68.2683 9.71953C68.0144 10.2701 67.4702 10.5433 66.6336 10.5433H62.1927C62.2972 11.0576 62.5341 11.5015 62.9076 11.8728C63.4176 12.3807 64.0322 12.6368 64.7535 12.6368C65.4749 12.6368 66.0873 12.3828 66.5952 11.8728C66.7126 11.7575 66.815 11.6338 66.9068 11.4972C66.9239 11.4737 66.9473 11.463 66.9751 11.463H68.3964C68.4262 11.463 68.4497 11.4737 68.4647 11.4972C68.4817 11.5228 68.4839 11.5484 68.4732 11.574C68.2705 12.0648 67.9802 12.5002 67.6004 12.8801C66.815 13.6654 65.8675 14.0581 64.7557 14.0581C63.6438 14.0581 62.692 13.6654 61.9067 12.8801C61.1193 12.0926 60.7245 11.1429 60.7245 10.0311C60.7245 8.91926 61.1171 7.96961 61.9067 7.18214C62.692 6.39468 63.6417 5.99988 64.7557 5.99988C65.8697 5.99988 66.815 6.39254 67.6004 7.18214ZM64.7557 7.42116C64.0344 7.42116 63.4176 7.67511 62.9097 8.18515C62.6067 8.48818 62.3911 8.8467 62.2631 9.25644H66.6123C66.7937 9.25644 66.9132 9.18601 66.9687 9.04303C67.0605 8.81042 66.9367 8.52446 66.5974 8.18515C66.0873 7.67724 65.4749 7.42116 64.7557 7.42116Z" fill="#7E7E81"/>
<path d="M76.1024 3.38987C76.1024 3.33652 76.1302 3.31091 76.1857 3.31091H77.4426C77.496 3.31091 77.5216 3.33652 77.5216 3.38987V13.7955C77.5216 13.851 77.496 13.8787 77.4426 13.8787H77.257C77.003 13.8787 76.7768 13.8019 76.5741 13.6504C76.3735 13.5031 76.2369 13.3132 76.1601 13.0806C75.4836 13.7315 74.6385 14.058 73.6227 14.058C72.5087 14.058 71.559 13.6653 70.7737 12.88C69.9862 12.0925 69.5915 11.1429 69.5915 10.031C69.5915 8.9192 69.9862 7.96954 70.7737 7.18208C71.559 6.39462 72.5087 5.99982 73.6227 5.99982C74.6043 5.99982 75.4323 6.30925 76.1024 6.92813V3.38987ZM75.4644 8.18508C74.9543 7.67718 74.3418 7.42109 73.6227 7.42109C72.9035 7.42109 72.2846 7.67505 71.7767 8.18508C71.2667 8.69512 71.0127 9.30973 71.0127 10.031C71.0127 10.7523 71.2667 11.3648 71.7767 11.8749C72.2868 12.387 72.9014 12.6431 73.6227 12.6431C74.344 12.6431 74.9565 12.387 75.4644 11.8749C75.9744 11.3648 76.2284 10.7523 76.2284 10.031C76.2284 9.30973 75.9744 8.69299 75.4644 8.18508Z" fill="#7E7E81"/>
<path d="M81.0854 3.41335C81.2732 3.60114 81.3671 3.82735 81.3671 4.09411C81.3671 4.36086 81.2732 4.58494 81.0854 4.77487C80.8976 4.96267 80.6714 5.05656 80.4047 5.05656C80.1379 5.05656 79.9117 4.96267 79.7239 4.77487C79.5361 4.58494 79.4422 4.35873 79.4422 4.09411C79.4422 3.82948 79.5361 3.60114 79.7239 3.41335C79.9117 3.22341 80.1379 3.12952 80.4047 3.12952C80.6714 3.12952 80.8976 3.22555 81.0854 3.41335ZM79.694 6.2623C79.694 6.20895 79.7218 6.18334 79.7773 6.18334H81.0342C81.0876 6.18334 81.1132 6.20895 81.1132 6.2623V13.7955C81.1132 13.851 81.0876 13.8787 81.0342 13.8787H79.7773C79.7218 13.8787 79.694 13.851 79.694 13.7955V6.2623Z" fill="#7E7E81"/>
<path d="M88.5013 6.42657C88.5311 6.44151 88.5461 6.46498 88.5461 6.49913V7.99937C88.5461 8.03564 88.5311 8.05912 88.5013 8.07192C88.4693 8.08686 88.4394 8.08259 88.4138 8.06125C87.9229 7.63658 87.3531 7.42317 86.7044 7.42317C85.9831 7.42317 85.3663 7.67712 84.8584 8.18716C84.3484 8.6972 84.0945 9.31181 84.0945 10.0331C84.0945 10.7544 84.3484 11.3669 84.8584 11.8769C85.3685 12.3848 85.9831 12.6409 86.7044 12.6409C87.3531 12.6409 87.9229 12.4275 88.4138 12.0028C88.4394 11.9794 88.4693 11.9772 88.5013 11.9922C88.5311 12.0071 88.5461 12.0306 88.5461 12.0647V13.1552C88.5461 13.486 88.3903 13.7101 88.0787 13.8232C87.6348 13.9832 87.176 14.0622 86.7044 14.0622C85.5904 14.0622 84.6408 13.6695 83.8554 12.8842C83.068 12.0967 82.6732 11.1471 82.6732 10.0352C82.6732 8.92341 83.068 7.97376 83.8554 7.18629C84.6408 6.39883 85.5904 6.00403 86.7044 6.00403C87.3382 6.00403 87.9357 6.14488 88.5013 6.4287" fill="#7E7E81"/>
<path d="M94.0114 14.0581C92.8974 14.0581 91.9478 13.6654 91.1624 12.8801C90.375 12.0926 89.9802 11.1429 89.9802 10.0311C89.9802 8.91926 90.375 7.96961 91.1624 7.18214C91.9478 6.39468 92.8974 5.99988 94.0114 5.99988C95.0272 5.99988 95.8723 6.32639 96.5488 6.97941C96.6256 6.74466 96.7622 6.5526 96.9628 6.40535C97.1655 6.25596 97.3938 6.18127 97.6457 6.18127H97.8313C97.8847 6.18127 97.9103 6.20688 97.9103 6.26023V13.7934C97.9103 13.8489 97.8847 13.8767 97.8313 13.8767H97.6457C97.3917 13.8767 97.1634 13.7998 96.9628 13.6483C96.7622 13.5011 96.6256 13.3111 96.5488 13.0785C95.8723 13.7294 95.0272 14.0559 94.0114 14.0559M96.6171 10.029C96.6171 9.30766 96.3631 8.69091 95.8531 8.18301C95.343 7.67297 94.7306 7.41902 94.0114 7.41902C93.2922 7.41902 92.6733 7.67297 92.1654 8.18301C91.6554 8.69091 91.4014 9.30766 91.4014 10.029C91.4014 10.7503 91.6554 11.3627 92.1654 11.8728C92.6755 12.385 93.2901 12.641 94.0114 12.641C94.7327 12.641 95.3452 12.385 95.8531 11.8728C96.361 11.3627 96.6171 10.7503 96.6171 10.029Z" fill="#7E7E81"/>
<path d="M101.506 13.7955C101.506 13.851 101.478 13.8787 101.423 13.8787H100.166C100.113 13.8787 100.087 13.851 100.087 13.7955V3.38987C100.087 3.33652 100.113 3.31091 100.166 3.31091H101.423C101.446 3.31091 101.466 3.31945 101.485 3.33439C101.5 3.35146 101.508 3.37067 101.508 3.39201V13.7976L101.506 13.7955Z" fill="#7E7E81"/>
<path d="M48.0738 26.6852C48.6863 27.0886 49.3756 27.3276 50.1396 27.4044C50.4063 27.4321 50.6667 27.4407 50.9249 27.4279C51.1725 27.4172 51.4029 27.3895 51.6163 27.3404C51.9023 27.2764 52.1413 27.1761 52.3313 27.0395C52.5319 26.8986 52.6812 26.7087 52.7794 26.474C52.9395 26.0962 52.9459 25.727 52.7986 25.3642C52.645 24.9865 52.3675 24.7048 51.9663 24.517L48.9381 23.1107C48.9061 23.0958 48.8677 23.0765 48.8271 23.0531C48.1827 22.7244 47.7494 22.2357 47.5232 21.5912C47.297 20.9468 47.3333 20.3065 47.6342 19.6642C47.647 19.6343 47.6641 19.598 47.6833 19.5575C47.9671 19.0112 48.4217 18.5993 49.0469 18.3262C49.7384 18.0231 50.5515 17.9036 51.4904 17.9719C52.263 18.0274 52.9651 18.2045 53.5946 18.5033C53.68 18.5438 53.7675 18.5886 53.8571 18.6356C53.8848 18.6505 53.8998 18.674 53.8998 18.7081V20.3108C53.8998 20.3428 53.8848 20.3684 53.8571 20.3834C53.8272 20.3983 53.7973 20.3962 53.7696 20.377C53.4943 20.1721 53.219 20.0056 52.9459 19.8755C52.487 19.6578 51.9663 19.5276 51.3837 19.4871C50.9655 19.4572 50.5728 19.4764 50.2015 19.5468C49.7128 19.645 49.3649 19.82 49.1558 20.0675C48.8933 20.3791 48.825 20.7206 48.9552 21.0897C49.0469 21.3501 49.2347 21.555 49.5207 21.7022C49.5356 21.7086 49.5527 21.7193 49.5741 21.7278L52.6023 23.1342C53.3663 23.4906 53.9019 24.0433 54.2049 24.7902C54.5058 25.535 54.4952 26.2904 54.1751 27.0587C53.9617 27.5623 53.6416 27.9678 53.2147 28.2708C52.8626 28.5248 52.438 28.7062 51.9429 28.8171C51.642 28.8833 51.324 28.9238 50.9889 28.9388C50.6624 28.9537 50.3295 28.9452 49.9902 28.9132C49.271 28.8406 48.6031 28.6592 47.9842 28.3733C47.711 28.2431 47.5745 28.0297 47.5745 27.7266V26.4804C47.5745 26.4483 47.5915 26.4227 47.6235 26.4078C47.6534 26.3929 47.6812 26.3971 47.7068 26.4185C47.8263 26.5124 47.9479 26.5999 48.0717 26.681" fill="#7E7E81"/>
<path d="M57.5405 22.4598V26.3416C57.5405 26.7172 57.6386 26.9989 57.8371 27.1888C58.0462 27.3915 58.3578 27.4918 58.7675 27.4918C59.0941 27.4918 59.3608 27.4257 59.5657 27.2912C59.5934 27.2742 59.6212 27.272 59.6489 27.287C59.6788 27.3019 59.6937 27.3254 59.6937 27.3595V28.7189C59.6937 28.7595 59.6724 28.7851 59.6318 28.7979C59.3587 28.8747 59.0706 28.911 58.7654 28.911C57.9779 28.911 57.3399 28.6762 56.8512 28.2089C56.3625 27.7373 56.1171 27.1141 56.1171 26.3395V18.9962C56.1171 18.9407 56.1427 18.913 56.196 18.913H56.3817C56.6996 18.913 56.9728 19.0261 57.199 19.2501C57.4252 19.4764 57.5362 19.7474 57.5362 20.0675V21.0363H59.6062C59.6617 21.0363 59.6895 21.062 59.6895 21.1153V21.9476C59.6895 22.0863 59.6382 22.2058 59.5379 22.304C59.4398 22.4043 59.3203 22.4555 59.1815 22.4555H57.5362L57.5405 22.4598Z" fill="#7E7E81"/>
<path d="M61.1491 21.1196C61.1491 21.0663 61.1748 21.0406 61.2281 21.0406H62.0604C62.1991 21.0406 62.3207 21.0897 62.421 21.19C62.5192 21.2882 62.5683 21.4077 62.5683 21.5464V26.3438C62.5683 26.6788 62.6963 26.9392 62.9567 27.127C63.2939 27.3724 63.7826 27.4962 64.4228 27.4962C65.063 27.4962 65.5496 27.3724 65.8889 27.127C66.1471 26.9392 66.2773 26.6788 66.2773 26.3438V21.1196C66.2773 21.0663 66.3029 21.0406 66.3562 21.0406H67.6132C67.6687 21.0406 67.6964 21.0663 67.6964 21.1196V26.3438C67.6964 27.159 67.372 27.8035 66.7211 28.2772C66.1343 28.7019 65.3682 28.9153 64.4228 28.9153C63.4774 28.9153 62.7113 28.7019 62.1244 28.2772C61.4735 27.8035 61.1491 27.159 61.1491 26.3438V21.1196Z" fill="#7E7E81"/>
<path d="M75.6415 18.2472C75.6415 18.1938 75.6692 18.1682 75.7247 18.1682H76.9817C77.035 18.1682 77.0606 18.1938 77.0606 18.2472V28.6528C77.0606 28.7083 77.035 28.736 76.9817 28.736H76.796C76.542 28.736 76.3158 28.6592 76.1131 28.5077C75.9125 28.3604 75.7759 28.1705 75.6991 27.9379C75.0226 28.5888 74.1775 28.9153 73.1617 28.9153C72.0477 28.9153 71.0981 28.5226 70.3128 27.7373C69.5253 26.9498 69.1305 26.0002 69.1305 24.8883C69.1305 23.7765 69.5253 22.8268 70.3128 22.0394C71.0981 21.2519 72.0477 20.8571 73.1617 20.8571C74.1434 20.8571 74.9714 21.1666 75.6415 21.7854V18.2493V18.2472ZM75.0034 23.0424C74.4934 22.5345 73.8809 22.2784 73.1617 22.2784C72.4425 22.2784 71.8237 22.5323 71.3158 23.0424C70.8057 23.5524 70.5518 24.167 70.5518 24.8883C70.5518 25.6096 70.8057 26.2221 71.3158 26.7322C71.8258 27.2443 72.4404 27.5004 73.1617 27.5004C73.883 27.5004 74.4955 27.2443 75.0034 26.7322C75.5134 26.2221 75.7674 25.6096 75.7674 24.8883C75.7674 24.167 75.5134 23.5503 75.0034 23.0424Z" fill="#7E7E81"/>
<path d="M85.4965 22.0372C85.8529 22.3936 86.0983 22.7863 86.2328 23.2152C86.3843 23.6997 86.3608 24.1521 86.1645 24.5746C85.9105 25.1252 85.3663 25.3984 84.5298 25.3984H80.0888C80.1934 25.9127 80.4303 26.3566 80.8037 26.7279C81.3138 27.2358 81.9284 27.4919 82.6497 27.4919C83.371 27.4919 83.9835 27.2379 84.4914 26.7279C84.6088 26.6126 84.7112 26.4889 84.8029 26.3523C84.82 26.3288 84.8435 26.3181 84.8712 26.3181H86.2925C86.3224 26.3181 86.3459 26.3288 86.3608 26.3523C86.3779 26.3779 86.38 26.4035 86.3693 26.4291C86.1666 26.92 85.8764 27.3553 85.4965 27.7352C84.7112 28.5205 83.7637 28.9132 82.6518 28.9132C81.54 28.9132 80.5882 28.5205 79.8029 27.7352C79.0154 26.9477 78.6206 25.998 78.6206 24.8862C78.6206 23.7744 79.0133 22.8247 79.8029 22.0372C80.5882 21.2498 81.5378 20.855 82.6518 20.855C83.7658 20.855 84.7112 21.2476 85.4965 22.0372ZM82.6518 22.2763C81.9305 22.2763 81.3138 22.5302 80.8059 23.0402C80.5028 23.3433 80.2873 23.7018 80.1593 24.1115H84.5085C84.6898 24.1115 84.8094 24.0411 84.8648 23.8981C84.9566 23.6655 84.8328 23.3796 84.4935 23.0402C83.9835 22.5323 83.371 22.2763 82.6518 22.2763Z" fill="#7E7E81"/>
<path d="M87.9784 23.4329C87.9784 22.6176 88.3028 21.9732 88.9537 21.4994C89.5405 21.0705 90.3067 20.8571 91.2521 20.8571C92.1974 20.8571 92.9636 21.0705 93.5504 21.4994C94.1992 21.9732 94.5236 22.6176 94.5236 23.4329V28.6527C94.5236 28.7082 94.4979 28.736 94.4446 28.736H93.6123C93.4736 28.736 93.3541 28.6869 93.2559 28.5887C93.1578 28.4863 93.1087 28.3668 93.1087 28.2281V23.4329C93.1087 23.0957 92.9785 22.8332 92.7203 22.6475C92.381 22.4021 91.8923 22.2783 91.2542 22.2783C90.6161 22.2783 90.1253 22.4021 89.7881 22.6475C89.5299 22.8353 89.3997 23.0978 89.3997 23.4329V28.6527C89.3997 28.7082 89.372 28.736 89.3165 28.736H88.0595C88.0062 28.736 87.9806 28.7082 87.9806 28.6527V23.4329H87.9784Z" fill="#7E7E81"/>
<path d="M97.8676 22.4598V26.3416C97.8676 26.7172 97.9658 26.9989 98.1642 27.1888C98.3734 27.3915 98.685 27.4918 99.0947 27.4918C99.4212 27.4918 99.688 27.4257 99.8928 27.2912C99.9206 27.2742 99.9483 27.272 99.9761 27.287C100.006 27.3019 100.021 27.3254 100.021 27.3595V28.7189C100.021 28.7595 99.9995 28.7851 99.959 28.7979C99.6858 28.8747 99.3977 28.911 99.0926 28.911C98.3051 28.911 97.667 28.6762 97.1783 28.2089C96.6896 27.7373 96.4442 27.1141 96.4442 26.3395V18.9962C96.4442 18.9407 96.4698 18.913 96.5232 18.913H96.7088C97.0268 18.913 97.3 19.0261 97.5262 19.2501C97.7524 19.4764 97.8633 19.7474 97.8633 20.0675V21.0363H99.9334C99.9889 21.0363 100.017 21.062 100.017 21.1153V21.9476C100.017 22.0863 99.9654 22.2058 99.8651 22.304C99.7669 22.4043 99.6474 22.4555 99.5087 22.4555H97.8633L97.8676 22.4598Z" fill="#7E7E81"/>
<path d="M107.251 26.5785L106.325 28.6869C106.312 28.7211 106.289 28.736 106.252 28.736H104.771C104.744 28.736 104.72 28.7232 104.703 28.6976C104.688 28.672 104.686 28.6464 104.699 28.6208L109.219 18.3176C109.283 18.1725 109.394 18.1021 109.554 18.1021C109.714 18.1021 109.825 18.1746 109.889 18.3176L114.409 28.6208C114.421 28.6464 114.419 28.672 114.4 28.6976C114.385 28.7232 114.362 28.736 114.332 28.736H113.199C112.932 28.736 112.746 28.6144 112.64 28.3711L111.852 26.5785H107.247H107.251ZM111.186 25.0548L109.552 21.333L107.917 25.0548H111.184H111.186Z" fill="#7E7E81"/>
<path d="M117.209 28.6528C117.209 28.7083 117.181 28.736 117.125 28.736H115.766C115.713 28.736 115.687 28.7083 115.687 28.6528V18.2472C115.687 18.1938 115.713 18.1682 115.766 18.1682H117.125C117.181 18.1682 117.209 18.1938 117.209 18.2472V28.6528Z" fill="#7E7E81"/>
</svg>
