<svg width="120" height="32" viewBox="0 0 120 32" fill="none" xmlns="http://www.w3.org/2000/svg">
<g clip-path="url(#clip0_9864_1906)">
<path d="M43.2052 23.4899L41.77 21.0083C42.4465 19.7451 42.439 18.2352 42.439 16.3067C42.439 13.8213 42.439 12.0274 41.0039 10.5735C39.9623 9.56455 38.569 9.00037 37.1189 9.00037C35.6687 9.00037 34.2755 9.56455 33.2339 10.5735C31.7801 12.0274 31.8212 13.8213 31.8212 16.3067C31.8212 18.792 31.7801 20.5822 33.2339 22.0361C33.7388 22.5538 34.3455 22.9613 35.0158 23.2327C35.6861 23.5042 36.4054 23.6337 37.1282 23.6132C37.54 23.6137 37.9507 23.5724 38.3541 23.4899H43.2052ZM35.3119 20.343C34.7662 19.7376 34.6279 19.0686 34.6279 16.3067C34.6279 13.5448 34.7662 12.872 35.3119 12.2666C35.544 12.0199 35.8261 11.8257 36.1394 11.6968C36.4526 11.5679 36.7897 11.5073 37.1282 11.5191C37.464 11.5068 37.7985 11.5673 38.1088 11.6963C38.4191 11.8253 38.6978 12.0198 38.9259 12.2666C39.4716 12.872 39.6323 13.541 39.6323 16.3067C39.6323 19.0723 39.4716 19.7376 38.9259 20.343C38.6978 20.5898 38.4191 20.7843 38.1088 20.9133C37.7985 21.0424 37.464 21.1028 37.1282 21.0905C36.7897 21.1023 36.4526 21.0417 36.1394 20.9128C35.8261 20.7839 35.544 20.5897 35.3119 20.343Z" fill="#7E7E81"/>
<path d="M76.0376 23.4861V9.11963H78.8107V23.4861H76.0376Z" fill="#7E7E81"/>
<path d="M9.24728 23.6131C7.06839 23.6131 5.41273 23.146 4.01495 21.7145L5.83132 19.8982C6.7395 20.8064 7.97283 21.1091 9.30334 21.1091C10.959 21.1091 11.8448 20.4812 11.8448 19.3338C11.8595 19.1124 11.8278 18.8904 11.7519 18.6819C11.676 18.4734 11.5574 18.283 11.4037 18.1229C11.0463 17.8187 10.5982 17.6413 10.1293 17.6184L8.39515 17.3755C7.16182 17.1923 6.25364 16.8111 5.61081 16.1832C5.25514 15.8076 4.98014 15.3631 4.80273 14.8772C4.62533 14.3913 4.54929 13.8742 4.5793 13.3578C4.5793 10.7939 6.47788 9 9.58738 9C11.5644 9 12.9959 9.48212 14.2292 10.6743L12.4278 12.4309C11.5196 11.5601 10.432 11.4405 9.48273 11.4405C7.98778 11.4405 7.26273 12.2665 7.26273 13.2569C7.25838 13.4486 7.29364 13.6392 7.36631 13.8167C7.43898 13.9942 7.54749 14.1547 7.68505 14.2884C8.06425 14.6042 8.52855 14.8006 9.0193 14.8527L10.7123 15.0957C12.0241 15.2751 12.8538 15.6376 13.4593 16.2169C14.2068 16.9419 14.5805 17.9921 14.5805 19.2628C14.5768 22.0322 12.2559 23.6131 9.24728 23.6131Z" fill="#7E7E81"/>
<path d="M18.6805 23.4898V9.11963H28.1473V11.6237H21.4873V14.9873H27.1606V17.4876H21.4873V20.9858H28.1473V23.4898H18.6805Z" fill="#7E7E81"/>
<path d="M51.9581 23.6132C49.0093 23.6132 46.6697 21.6137 46.6697 18.564V9.11963H49.4765V18.4631C49.4765 20.1187 50.4445 21.1091 51.9581 21.1091C53.4718 21.1091 54.4584 20.1187 54.4584 18.4631V9.11963H57.2465V18.564C57.2465 21.6137 54.9032 23.6132 51.9581 23.6132Z" fill="#7E7E81"/>
<path d="M70.4876 22.0323C69.4474 23.0439 68.0536 23.6099 66.6026 23.6099C65.1516 23.6099 63.7578 23.0439 62.7176 22.0323C61.2638 20.5784 61.3049 18.7845 61.3049 16.3029C61.3049 13.8213 61.2638 12.0236 62.7176 10.5698C63.7592 9.56077 65.1524 8.99658 66.6026 8.99658C68.0527 8.99658 69.446 9.56077 70.4876 10.5698C71.9414 12.0236 71.919 13.8175 71.919 16.3029C71.919 18.7882 71.9414 20.5822 70.4876 22.0323ZM68.4096 12.2628C68.1812 12.0164 67.9024 11.8222 67.5922 11.6932C67.282 11.5642 66.9477 11.5035 66.6119 11.5153C66.2734 11.5035 65.9363 11.5641 65.6231 11.693C65.3099 11.8219 65.0277 12.0162 64.7956 12.2628C64.2499 12.8682 64.1079 13.5372 64.1079 16.3029C64.1079 19.0685 64.2499 19.7338 64.7956 20.3393C65.0277 20.5859 65.3099 20.7801 65.6231 20.909C65.9363 21.0379 66.2734 21.0985 66.6119 21.0867C66.9477 21.0985 67.282 21.0378 67.5922 20.9089C67.9024 20.7799 68.1812 20.5856 68.4096 20.3393C68.9553 19.7338 69.116 19.0648 69.116 16.3029C69.116 13.541 68.9553 12.872 68.4096 12.2665V12.2628Z" fill="#7E7E81"/>
<path d="M92.0338 23.4898L91.1891 20.9484H86.054L85.1869 23.4898H82.2606L87.4929 9.11963H89.6905L94.9489 23.4898H92.0338ZM88.6702 13.3578L86.8538 18.5901H90.4267L88.6702 13.3578Z" fill="#7E7E81"/>
<path d="M115 9.11963H111.409V12.7112H115V9.11963Z" fill="#7E7E81"/>
<path d="M102.427 20.4252V9.11963H100.63V22.2229L102.427 20.4252Z" fill="#7E7E81"/>
<path d="M103.695 21.6959L101.901 23.4899H115V21.6959H103.695Z" fill="#7E7E81"/>
<path d="M106.019 16.8336V9.11963H104.221V18.6275L106.019 16.8336Z" fill="#7E7E81"/>
<path d="M107.29 18.1042L105.492 19.8982H115V18.1042H107.29Z" fill="#7E7E81"/>
<path d="M109.611 13.242V9.11963H107.813V15.0359L109.611 13.242Z" fill="#7E7E81"/>
<path d="M110.881 14.5089L109.084 16.3066H115V14.5089H110.881Z" fill="#7E7E81"/>
</g>
<defs>
<clipPath id="clip0_9864_1906">
<rect width="111" height="14.6131" fill="white" transform="translate(4 9)"/>
</clipPath>
</defs>
</svg>
