<svg width="123" height="32" viewBox="0 0 123 32" fill="none" xmlns="http://www.w3.org/2000/svg">
<mask id="mask0_9864_1829" style="mask-type:luminance" maskUnits="userSpaceOnUse" x="6" y="4" width="26" height="25">
<path d="M31.1706 4H6.92914V28.5184H31.1706V4Z" fill="white"/>
</mask>
<g mask="url(#mask0_9864_1829)">
<path d="M16.1575 4L11.409 18.6781L7.54721 17.7091L7.2276 18.6994C6.99113 19.43 6.89326 20.211 6.94063 20.9892C6.988 21.7675 7.1795 22.5248 7.50213 23.2098C7.82476 23.8948 8.27097 24.4915 8.81048 24.9594C9.34998 25.4273 9.97015 25.7553 10.6289 25.9212L13.1031 26.5438L13.1973 26.5693L20.4657 28.4033C20.5272 28.4186 20.588 28.4328 20.6497 28.444C20.8939 28.4935 21.1414 28.5183 21.3893 28.5184C22.2878 28.516 23.1644 28.1981 23.9034 27.6066C24.6423 27.015 25.2086 26.1781 25.5276 25.206L31.1627 7.78312L16.1575 4ZM11.0788 23.529C10.4989 23.3828 9.97995 23.0104 9.60914 22.474C9.23834 21.9377 9.03819 21.2702 9.04228 20.5834L10.6606 20.991L12.7473 21.5146L16.9631 22.5722C16.8881 23.4254 16.9911 24.2871 17.2633 25.0848L15.6213 24.6721L13.612 24.1627L11.0788 23.529ZM23.5561 24.3441C23.3698 24.9123 23.0214 25.3899 22.5687 25.698C22.116 26.0061 21.5859 26.1263 21.0661 26.0385C20.497 25.8826 19.9895 25.5107 19.6244 24.982C19.2594 24.4531 19.058 23.7981 19.0525 23.1214C19.053 22.7632 19.109 22.4081 19.218 22.073L19.6476 20.7484L13.4958 19.2048L17.4949 6.83963L28.3354 9.57023L23.5561 24.3441ZM25.3277 11.8923L24.5792 14.2051L17.9114 12.525L18.658 10.2152L25.3277 11.8923ZM23.3756 17.8019L22.2733 18.0708C22.2123 18.0852 22.1583 18.1256 22.1218 18.1838L21.4589 19.2384C21.4302 19.2839 21.3907 19.3189 21.3453 19.339C21.2999 19.3592 21.2503 19.3637 21.2027 19.3519C21.1551 19.3402 21.1114 19.3127 21.0771 19.2728C21.0427 19.233 21.019 19.1824 21.0089 19.1273L20.7765 17.8517C20.7641 17.7806 20.7289 17.7176 20.6778 17.6754L19.7665 16.9062C19.7273 16.8729 19.6971 16.8271 19.6799 16.7743C19.6626 16.7216 19.6588 16.6642 19.6691 16.6091C19.6794 16.554 19.7031 16.5034 19.7376 16.4636C19.772 16.4237 19.8158 16.3963 19.8634 16.3845L20.9657 16.1166C21.0268 16.1011 21.0809 16.0606 21.1181 16.0025L21.7803 14.9479C21.809 14.9025 21.8485 14.8676 21.894 14.8475C21.9396 14.8275 21.9891 14.823 22.0367 14.8348C22.0843 14.8465 22.1279 14.8739 22.1624 14.9137C22.197 14.9534 22.2207 15.0039 22.231 15.059L22.4625 16.3356C22.476 16.406 22.511 16.4683 22.5612 16.5109L23.4725 17.2781C23.5131 17.311 23.5442 17.3569 23.5623 17.4102C23.5804 17.4633 23.5845 17.5216 23.5743 17.5775C23.5639 17.6335 23.5396 17.6848 23.5042 17.7248C23.469 17.7648 23.4242 17.792 23.3756 17.8028V17.8019Z" fill="#7E7E81"/>
</g>
<path d="M44.0655 21.0026V23.8151H35.3795V21.0026L40.1783 14.4588V14.355H35.3795V11.5425H44.0655V14.355L39.2737 20.8988V21.0026H44.0655ZM53.8633 20.0198H47.8563C47.9299 20.4033 48.121 20.731 48.4293 21.0026C48.7424 21.2743 49.1452 21.4102 49.6377 21.4102C50.4018 21.4102 51.0945 21.1305 51.7159 20.5712L53.2143 22.3609C52.6573 22.9256 52.1119 23.3571 51.5778 23.6553C51.0485 23.9483 50.3787 24.0948 49.5686 24.0948C48.1371 24.0629 47.0092 23.5835 46.1853 22.6566C45.3659 21.7298 44.9563 20.5339 44.9563 19.0691C44.9563 17.6415 45.3912 16.451 46.2612 15.4975C47.1358 14.5387 48.1992 14.0593 49.4512 14.0593C50.7078 14.0593 51.7712 14.5387 52.6411 15.4975C53.5111 16.451 53.9462 17.6415 53.9462 19.0691C53.9462 19.41 53.9186 19.7269 53.8633 20.0198ZM49.4512 16.7918C49.0645 16.7918 48.7239 16.9251 48.4293 17.1915C48.1393 17.4524 47.9483 17.7614 47.8563 18.1183H51.0531C50.9472 17.756 50.747 17.4445 50.4524 17.1834C50.1624 16.9224 49.8287 16.7918 49.4512 16.7918ZM60.1258 14.0434C60.6552 14.0434 61.2029 14.2032 61.7691 14.5228L60.6644 17.535C60.4665 17.3912 60.1834 17.3193 59.8151 17.3193C59.3456 17.3193 58.9658 17.4924 58.6758 17.8386C58.3905 18.1796 58.2477 18.6563 58.2477 19.2689V23.8151H55.3616V14.339H58.158V15.8171L58.2063 15.8491C58.3675 15.3697 58.6161 14.9489 58.952 14.5867C59.2927 14.2245 59.6839 14.0434 60.1258 14.0434ZM70.2964 15.5055C71.2493 16.4643 71.7257 17.6522 71.7257 19.0691C71.7257 20.4859 71.2493 21.6792 70.2964 22.6486C69.3436 23.6128 68.2021 24.0948 66.8717 24.0948C65.546 24.0948 64.4067 23.6128 63.4539 22.6486C62.501 21.6792 62.0246 20.4859 62.0246 19.0691C62.0246 17.6522 62.501 16.4643 63.4539 15.5055C64.4067 14.5414 65.546 14.0593 66.8717 14.0593C68.2021 14.0593 69.3436 14.5414 70.2964 15.5055ZM65.6219 17.6228C65.2767 18.033 65.1041 18.5177 65.1041 19.0771C65.1041 19.631 65.2767 20.1131 65.6219 20.5232C65.9672 20.9281 66.3838 21.1305 66.8717 21.1305C67.3642 21.1305 67.7808 20.9281 68.1214 20.5232C68.4666 20.1131 68.6393 19.631 68.6393 19.0771C68.6393 18.5177 68.4666 18.033 68.1214 17.6228C67.7808 17.2127 67.3642 17.0076 66.8717 17.0076C66.3838 17.0076 65.9672 17.2127 65.6219 17.6228ZM76.0204 21.0026H81.0954V23.8151H73.1342V11.5425H81.0954V14.355H76.0204V16.2726H80.1217V19.085H76.0204V21.0026ZM89.3533 15.0421L88.2554 17.1515C87.4545 16.6614 86.6858 16.4164 85.9493 16.4164C85.6777 16.4164 85.4729 16.5149 85.3348 16.712C85.1967 16.9091 85.1668 17.1114 85.245 17.3193C85.3279 17.5269 85.4914 17.6468 85.7353 17.6788C87.2037 17.9079 88.2394 18.2568 88.8424 18.7256C89.45 19.1942 89.7538 19.9187 89.7538 20.8988C89.7538 21.9374 89.4154 22.7312 88.7388 23.2797C88.0668 23.823 87.1369 24.0948 85.9493 24.0948C84.481 24.0948 83.2174 23.7113 82.1587 22.9443L83.3049 20.803C83.5857 21.0106 83.9792 21.1998 84.4855 21.3702C84.9964 21.5406 85.4844 21.6259 85.9493 21.6259C86.2025 21.6259 86.3935 21.53 86.5224 21.3382C86.6559 21.1465 86.6905 20.9441 86.6259 20.731C86.5615 20.5179 86.4005 20.3848 86.1426 20.3315C85.7192 20.2356 85.3854 20.1584 85.1415 20.0998C84.8976 20.0359 84.6214 19.9559 84.3129 19.86C84.0091 19.7589 83.772 19.6603 83.6017 19.5644C83.4315 19.4632 83.2543 19.338 83.0701 19.1888C82.8859 19.0344 82.7478 18.864 82.6558 18.6775C82.5683 18.4911 82.4969 18.2701 82.4417 18.0144C82.3865 17.7587 82.3589 17.4711 82.3589 17.1515C82.3589 16.1927 82.6949 15.4389 83.3669 14.8903C84.0391 14.3363 84.8998 14.0593 85.9493 14.0593C87.2566 14.0593 88.3913 14.3869 89.3533 15.0421ZM98.0809 15.0421L96.983 17.1515C96.182 16.6614 95.4133 16.4164 94.6768 16.4164C94.4052 16.4164 94.2004 16.5149 94.0623 16.712C93.9242 16.9091 93.8943 17.1114 93.9725 17.3193C94.0554 17.5269 94.2189 17.6468 94.4628 17.6788C95.9312 17.9079 96.9669 18.2568 97.5699 18.7256C98.1775 19.1942 98.4813 19.9187 98.4813 20.8988C98.4813 21.9374 98.1429 22.7312 97.4663 23.2797C96.7943 23.823 95.8644 24.0948 94.6768 24.0948C93.2085 24.0948 91.9449 23.7113 90.8862 22.9443L92.0324 20.803C92.3132 21.0106 92.7067 21.1998 93.213 21.3702C93.7239 21.5406 94.2119 21.6259 94.6768 21.6259C94.93 21.6259 95.121 21.53 95.2499 21.3382C95.3834 21.1465 95.418 20.9441 95.3535 20.731C95.289 20.5179 95.128 20.3848 94.8701 20.3315C94.4467 20.2356 94.1129 20.1584 93.869 20.0998C93.6251 20.0359 93.3489 19.9559 93.0404 19.86C92.7366 19.7589 92.4996 19.6603 92.3292 19.5644C92.159 19.4632 91.9818 19.338 91.7976 19.1888C91.6134 19.0344 91.4753 18.864 91.3833 18.6775C91.2958 18.4911 91.2245 18.2701 91.1692 18.0144C91.114 17.7587 91.0864 17.4711 91.0864 17.1515C91.0864 16.1927 91.4224 15.4389 92.0944 14.8903C92.7666 14.3363 93.6273 14.0593 94.6768 14.0593C95.9842 14.0593 97.1188 14.3869 98.0809 15.0421ZM103.335 14.0593C103.92 14.0593 104.447 14.2218 104.916 14.5467C105.391 14.8663 105.727 15.2498 105.925 15.6973H105.98V14.339H108.866V23.8151H105.98V22.4728H105.925C105.727 22.9202 105.391 23.3038 104.916 23.6234C104.447 23.9376 103.92 24.0948 103.335 24.0948C102.185 24.0948 101.262 23.618 100.567 22.6646C99.8761 21.7058 99.5308 20.5126 99.5308 19.085C99.5308 17.6468 99.8761 16.451 100.567 15.4975C101.262 14.5387 102.185 14.0593 103.335 14.0593ZM106.007 19.085C105.998 18.5631 105.826 18.1076 105.49 17.7187C105.154 17.3299 104.751 17.1355 104.281 17.1355C103.812 17.1355 103.416 17.3299 103.094 17.7187C102.771 18.1076 102.61 18.5631 102.61 19.085C102.61 19.607 102.771 20.0625 103.094 20.4514C103.416 20.8402 103.812 21.0346 104.281 21.0346C104.751 21.0346 105.154 20.8402 105.49 20.4514C105.826 20.0625 105.998 19.607 106.007 19.085ZM119.25 14.339L115.135 26.6116H111.987L113.057 23.8151L109.922 14.339H113.147L114.542 20.4274H114.631L116.026 14.339H119.25Z" fill="#7E7E81"/>
</svg>
