<svg width="61" height="32" viewBox="0 0 61 32" fill="none" xmlns="http://www.w3.org/2000/svg">
<g clip-path="url(#clip0_9864_1762)">
<path d="M32.8961 7.84682C30.772 7.30915 28.7332 10.691 27.6215 15.2178C26.5097 19.7448 26.7458 23.7025 28.8701 24.2401C30.9943 24.7778 33.033 21.396 34.1447 16.869C35.2565 12.3422 35.0203 8.38441 32.8961 7.84682ZM39.5701 16.0434C39.3219 21.038 35.4851 25.087 30.4336 25.087C25.3821 25.087 21.9479 21.038 22.1961 16.0434C22.4444 11.0488 26.2812 7 31.3325 7C36.384 7 39.8183 11.0488 39.5701 16.0434ZM51.3135 7.84682C49.1893 7.30915 47.1506 10.691 46.0389 15.2178C44.9272 19.7448 45.1631 23.7025 47.2873 24.2401C49.4115 24.7778 51.4502 21.396 52.5619 16.869C53.6736 12.3422 53.4374 8.38441 51.3135 7.84682ZM57.9874 16.0434C57.7393 21.038 53.9024 25.087 48.851 25.087C43.7995 25.087 40.3652 21.038 40.6134 16.0434C40.8616 11.0488 44.6984 7 49.7498 7C54.8013 7 58.2355 11.0488 57.9874 16.0434ZM21.3306 18.85C21.1927 22.8612 17.4858 25.0368 13.6696 25.0368C10.4362 25.0368 7.41714 23.2814 6 22.2139L7.59429 17.7165L7.68936 17.7512C10.3111 21.7296 12.5389 24.4698 14.8679 24.2565C16.4082 24.1155 17.3232 23.1622 17.3882 21.2731C17.4786 18.6454 15.5027 15.3877 8.06893 16.7319L7.95772 16.6912L11.304 7.25095H22.5199L21.0143 11.4989H10.5062L9.51544 14.2943C15.4532 11.198 21.4815 14.4643 21.3306 18.85Z" fill="#7E7E81"/>
</g>
<defs>
<clipPath id="clip0_9864_1762">
<rect width="52" height="18.087" fill="white" transform="translate(6 7)"/>
</clipPath>
</defs>
</svg>
