<svg width="112" height="32" viewBox="0 0 112 32" fill="none" xmlns="http://www.w3.org/2000/svg">
<g clip-path="url(#clip0_9864_1733)">
<path d="M30.8556 8.00442C30.8556 6.97439 30.1227 6.26541 29.0966 6.26541C26.5248 6.26541 23.953 6.26541 21.3812 6.26541C18.8094 6.26541 16.3708 6.31891 13.8656 6.23865C12.3199 6.19852 11.6936 7.14829 11.6936 8.44586C11.7203 10.9741 11.6936 13.5024 11.6936 16.044C11.6936 18.5857 11.6936 20.8865 11.6936 23.3077C11.6936 24.4983 12.3999 25.3277 13.4259 25.3277C18.6628 25.3277 23.8997 25.3277 29.1232 25.3277C30.1093 25.3277 30.8422 24.5919 30.8422 23.602C30.8422 18.4118 30.8422 13.2081 30.8422 8.0178L30.8556 8.00442ZM14.0256 13.5158C14.5053 12.6195 15.0516 11.7634 15.6246 10.9206C16.0377 10.3053 16.8372 10.1715 17.4502 10.5461C18.0898 10.9206 18.3297 11.7232 17.9565 12.3921C17.4635 13.2616 16.9305 14.091 16.3975 14.9337C16.1443 15.335 15.7445 15.5223 15.2781 15.5223C14.2254 15.5223 13.5325 14.4521 14.0256 13.5158ZM16.7306 22.679C15.6113 22.679 14.9717 21.5554 15.5446 20.5521C16.3575 19.1609 17.2237 17.783 18.0632 16.4052C19.5156 14.0241 20.9681 11.643 22.4206 9.26186C22.767 8.70003 23.1801 8.25858 23.8864 8.29872C24.979 8.3656 25.5387 9.50265 24.9257 10.5193C23.6465 12.673 22.3273 14.8 21.0214 16.9269C20.0353 18.5589 19.0359 20.1775 18.0498 21.8095C17.7433 22.3178 17.3569 22.6656 16.7306 22.679ZM28.4037 14.9337C27.6841 16.1778 26.9112 17.3951 26.165 18.6258C25.3388 19.9635 24.526 21.3146 23.6998 22.6389C23.1535 23.5218 22.3806 23.7626 21.6477 23.2944C20.9414 22.8529 20.8082 22.0369 21.3146 21.1942C22.8603 18.6659 24.4061 16.1377 25.9518 13.596C26.2583 13.0877 26.658 12.7399 27.2843 12.7533C28.3904 12.7533 29.0033 13.9037 28.417 14.9203L28.4037 14.9337Z" fill="#7E7E81"/>
<path d="M72.6857 11.2817H76.8166C77.7893 14.6394 78.7621 17.9703 79.7348 21.3145C79.7881 21.3145 79.8414 21.3145 79.8947 21.3145C80.8675 17.9703 81.8402 14.6394 82.7997 11.2951H86.9439C85.2915 16.0306 83.6525 20.6992 82.0401 25.3544H77.5761C75.9504 20.6858 74.3247 16.0306 72.6724 11.2817H72.6857Z" fill="#7E7E81"/>
<path d="M68.0771 6.49463H71.8349V25.3295H68.0771V6.49463Z" fill="#7E7E81"/>
<path d="M52.0004 13.6782C51.6006 11.4308 50.6146 9.49118 48.709 8.09997C47.2965 7.08331 45.6975 6.54823 44.0051 6.49472C41.4467 6.40108 38.8749 6.46797 36.2498 6.46797V25.3296C36.3963 25.3563 36.5029 25.3831 36.6095 25.3831C39.2613 25.343 41.9264 25.4366 44.5781 25.2226C47.9761 24.955 50.3214 23.109 51.534 19.8985C52.2936 17.8786 52.3868 15.7784 52.0137 13.6782H52.0004ZM47.9228 18.1729C47.4031 20.3399 45.964 21.6241 43.7386 21.7847C42.5927 21.8649 41.4467 21.798 40.2341 21.798V9.79885C42.3661 9.89249 44.6181 9.26377 46.4037 10.8824C47.0833 11.4977 47.5897 12.4341 47.8695 13.317C48.3759 14.8955 48.3093 16.5409 47.9228 18.1729Z" fill="#7E7E81"/>
<path d="M95.364 19.2584H100.201C100.308 17.3321 100.121 15.5931 99.2017 14.0013C98.109 12.1285 96.3767 11.2322 94.2846 11.0449C91.7928 10.8309 89.5941 11.5265 88.0883 13.6267C86.6358 15.6466 86.396 17.9609 86.8624 20.3553C87.1289 21.7332 87.7019 23.0174 88.7679 23.9404C91.3664 26.1877 95.3906 26.3215 98.2023 24.3417C99.1084 23.7264 99.868 22.6294 100.095 21.3185C98.8686 21.2516 97.7226 21.1847 96.5899 21.1178C95.5239 22.8435 93.8449 22.9505 92.5257 22.5224C91.2065 22.0944 90.4869 20.8771 90.6068 19.2718H95.3507L95.364 19.2584ZM93.8182 13.921C95.364 13.9879 96.6033 15.339 96.4433 16.8238H90.6335C90.6335 15.1249 92.046 13.8407 93.8182 13.921Z" fill="#7E7E81"/>
<path d="M66.6843 17.4921C66.5244 14.79 65.4451 12.7031 62.8733 11.5393C59.9417 10.215 56.1572 11.2584 54.385 13.9338C53.1723 15.7665 53.0791 17.8132 53.3056 19.8866C53.4522 21.2511 53.9585 22.4951 54.9047 23.5385C56.6503 25.4648 58.9156 25.8394 61.3408 25.6254C63.0198 25.4782 64.499 24.796 65.605 23.4717C66.1113 22.8563 66.4844 22.0403 66.5244 21.3179C65.3251 21.2511 64.1791 21.1842 63.0731 21.1173C62.0604 22.9366 60.0216 23.0436 58.6358 22.3614C57.4631 21.7861 56.9568 20.3147 57.2366 19.2579H66.591C66.631 19.084 66.6577 19.0305 66.6577 18.9636C66.6577 18.4686 66.6843 17.9871 66.6577 17.5055L66.6843 17.4921ZM62.9799 16.8099H57.1833C56.9168 15.6461 58.2493 14.0944 59.8217 13.9205C61.4474 13.7465 63.1264 15.0976 62.9799 16.8099Z" fill="#7E7E81"/>
</g>
<defs>
<clipPath id="clip0_9864_1733">
<rect width="90.2666" height="19.8752" fill="white" transform="translate(11 6)"/>
</clipPath>
</defs>
</svg>
