<svg width="119" height="32" viewBox="0 0 119 32" fill="none" xmlns="http://www.w3.org/2000/svg">
<g clip-path="url(#clip0_9864_1807)">
<mask id="mask0_9864_1807" style="mask-type:luminance" maskUnits="userSpaceOnUse" x="5" y="4" width="108" height="25">
<path d="M112.425 4H5.7951V28.3725H112.425V4Z" fill="white"/>
</mask>
<g mask="url(#mask0_9864_1807)">
<path d="M61.9554 18.7251C59.2643 18.7251 57.1317 20.8069 57.1317 23.5488C57.1317 26.2907 59.3151 28.3725 61.9554 28.3725C64.6466 28.3725 66.7792 26.2399 66.7792 23.5488C66.7792 20.8069 64.6466 18.7251 61.9554 18.7251ZM61.9554 20.6546C63.5803 20.6546 64.7989 21.8732 64.7989 23.5488C64.7989 25.2244 63.5295 26.443 61.9554 26.443C60.3306 26.443 59.112 25.2244 59.112 23.5488C59.0612 21.8732 60.3306 20.6546 61.9554 20.6546ZM102.119 25.2752V20.8577H104.404V18.9282H102.119V16.3386L100.139 16.9479V18.9282H98.4635V20.8577H100.139V25.2752C100.139 27.6617 101.358 28.5249 104.404 28.1187V26.3415C102.881 26.443 102.119 26.443 102.119 25.2752ZM112.376 26.2907H107.857L112.376 20.8577V19.0297H105.369V20.8577H109.888L105.369 26.2907V28.1694H112.376V26.2907ZM72.3645 18.8266V20.9592C71.0444 20.8577 69.5211 21.467 69.5211 23.5488V28.1694H67.5408V18.979H69.5211V20.5022C70.0796 19.2836 71.1967 18.8266 72.3645 18.8266ZM77.1375 18.7251C74.4464 18.7251 72.3138 20.8069 72.3138 23.5488C72.3138 26.2907 74.4971 28.3725 77.1375 28.3725C79.8286 28.3725 81.9612 26.2399 81.9612 23.5488C82.012 20.8069 79.8794 18.7251 77.1375 18.7251ZM77.1375 20.6546C78.7623 20.6546 79.981 21.8732 79.981 23.5488C79.981 25.2244 78.7116 26.443 77.1375 26.443C75.5127 26.443 74.294 25.2244 74.294 23.5488C74.294 21.8732 75.5634 20.6546 77.1375 20.6546ZM95.0615 18.979L92.1672 28.1694H90.2377L88.3082 21.9747L86.3787 28.1694H84.4493L81.555 18.979H83.6368L85.414 25.326L87.3435 18.979H89.2222L91.1517 25.326L92.9289 18.979H95.0615ZM97.7018 18.979H95.7215V28.1694H97.7018V18.979ZM33.2669 4.60931V8.41752C32.5053 7.85898 31.439 7.402 30.4235 7.402C27.58 7.402 25.2951 9.89003 25.5997 12.7843C25.8536 15.0184 27.6816 16.8464 29.9157 17.1002C31.1851 17.2018 32.353 16.8464 33.2669 16.1863V16.8971H35.298V4L33.2669 4.60931ZM33.2162 12.2765C33.2162 14.0537 31.5913 15.4246 29.7634 15.0184C28.6971 14.8153 27.8339 13.9521 27.58 12.835C27.2246 11.0071 28.6463 9.38227 30.4235 9.38227C31.9468 9.38227 33.2162 10.6517 33.2162 12.2765ZM13.6673 7.70666V8.31597C12.9057 7.75743 11.8902 7.402 10.8747 7.402C8.0312 7.402 5.74627 9.89003 6.05093 12.7843C6.30481 15.0184 8.13275 16.8464 10.3669 17.1002C11.6363 17.2018 12.8042 16.8464 13.7181 16.1863V16.8971H15.7492V7.70666H13.6673ZM13.6673 12.2765C13.6673 14.0537 12.0425 15.4246 10.2146 15.0184C9.14827 14.8153 8.28508 13.9521 8.0312 12.835C7.67577 11.0071 9.0975 9.38227 10.8747 9.38227C12.3979 9.38227 13.6673 10.6517 13.6673 12.2765ZM21.3345 7.45278C20.0651 7.45278 19.1004 7.90976 18.4911 8.87451V7.65588H16.5108V16.8464H18.4911V11.9211C18.4911 10.0424 19.5066 9.28072 20.8268 9.28072C22.0962 9.28072 22.8578 9.99158 22.8578 11.4133V16.8464H24.8381V11.261C24.8889 8.87451 23.4164 7.45278 21.3345 7.45278ZM58.2488 14.1552C57.7918 14.8153 56.9794 15.2723 55.8623 15.2723C54.3898 15.2723 53.2219 14.5614 52.9173 13.0889H60.229C60.2798 12.835 60.2798 12.5304 60.2798 12.2765C60.2798 9.63615 58.4011 7.45278 55.6592 7.45278C52.765 7.45278 50.8355 9.58537 50.8355 12.2765C50.8355 15.0184 52.8157 17.1002 55.8115 17.1002C57.5887 17.1002 59.0104 16.3386 59.8228 15.12L58.2488 14.1552ZM55.71 9.28072C56.9286 9.28072 58.0457 9.94081 58.3503 11.5149H52.9173C53.2219 10.1439 54.2375 9.28072 55.71 9.28072ZM80.9457 15.3231C82.0628 15.3231 82.8752 14.8153 83.3322 14.206L84.957 15.1707C84.0938 16.4401 82.7229 17.151 80.9457 17.151C77.8991 17.151 75.9696 15.0692 75.9696 12.3273C75.9696 9.58537 77.9499 7.50355 80.7934 7.50355C83.5353 7.50355 85.414 9.68692 85.414 12.3273C85.414 12.4288 85.414 12.5812 85.3632 12.7335C85.3632 12.8858 85.3124 12.9874 85.3124 13.1397H78.0007C78.3053 14.5614 79.4732 15.3231 80.9457 15.3231ZM83.3829 11.5149C83.1291 9.94081 81.9612 9.28072 80.7426 9.28072C79.2701 9.28072 78.2546 10.1439 77.9499 11.5149H83.3829ZM97.7018 16.8971H95.7215V15.12H97.7018V16.8971ZM86.3787 16.8971H88.359V11.9719C88.359 10.0931 89.3745 9.33149 90.6947 9.33149C91.9133 9.33149 92.7258 10.0931 92.7258 11.4641V16.8464H94.706V11.2102C94.706 8.82373 93.2335 7.45278 91.2025 7.45278C89.9331 7.45278 88.9683 7.90976 88.359 8.87451V7.70666H86.3787V16.8971ZM62.9202 10.2455C62.9202 9.58537 63.5295 9.28072 64.2404 9.28072C64.9512 9.28072 65.5605 9.58537 65.916 10.1947L67.6424 9.33149C66.9823 8.16364 65.7636 7.45278 64.2404 7.45278C62.3616 7.45278 60.8891 8.51907 60.8891 10.2455C60.8891 12.175 62.514 12.6319 63.9357 13.0381H63.9865C64.0373 13.0381 64.088 13.0889 64.1388 13.0889C65.1036 13.3936 65.8144 13.5967 65.8144 14.2568C65.8144 14.9676 65.1543 15.2723 64.2404 15.2723C63.3772 15.2723 62.6663 14.9169 62.3109 14.2568L60.5337 15.12C61.143 16.3386 62.4632 17.1002 64.1896 17.1002C66.1699 17.1002 67.7947 16.0847 67.7947 14.2568C67.7947 12.2765 66.0683 11.7687 64.6973 11.4133C63.7834 11.1594 62.9202 10.9056 62.9202 10.2455ZM70.5874 10.2455C70.5874 9.58537 71.1967 9.28072 71.9076 9.28072C72.6184 9.28072 73.2277 9.58537 73.6339 10.2455L75.3603 9.38227C74.7002 8.21442 73.4308 7.50355 71.9583 7.50355C70.0796 7.50355 68.6071 8.56985 68.6071 10.2962C68.6071 12.2257 70.2319 12.6827 71.6537 13.0889H71.806C72.72 13.3936 73.5324 13.6475 73.5324 14.3076C73.5324 15.0184 72.8215 15.3231 71.9583 15.3231C71.0444 15.3231 70.3843 14.9676 70.0288 14.3076L68.2517 15.1707C68.861 16.3894 70.1304 17.151 71.9076 17.151C73.9386 17.151 75.5127 16.1355 75.5127 14.3076C75.5127 12.3273 73.8878 11.8703 72.4661 11.4641H72.4153C72.3138 11.4641 72.263 11.4133 72.1614 11.4133C71.2982 11.1087 70.5874 10.9056 70.5874 10.2455ZM40.9341 9.68692V7.55433C39.7663 7.55433 38.6492 8.01131 38.0907 9.22994V7.70666H36.1104V16.8971H38.0907V12.2765C38.0907 10.1947 39.6139 9.58537 40.9341 9.68692ZM50.023 15.12V20.1468C50.6324 19.1821 51.5971 18.7251 52.8665 18.7251C54.8976 18.7251 56.3701 20.096 56.3701 22.4825V28.1694H54.3898V22.7364C54.3898 21.3654 53.5774 20.6038 52.3587 20.6038C51.0386 20.6038 50.023 21.3654 50.023 23.2442V28.1694H48.0428V16.7448C47.4335 16.9987 46.7734 17.151 46.0117 17.151C42.9652 17.151 41.0357 15.0692 41.0357 12.3273C41.0357 9.58537 43.0159 7.50355 45.8594 7.50355C48.6013 7.50355 50.48 9.68692 50.48 12.3273C50.48 12.4288 50.48 12.5812 50.4293 12.7335C50.4293 12.8858 50.3785 12.9874 50.3785 13.1397H43.0667C43.3714 14.5614 44.5392 15.3231 46.0117 15.3231C46.8749 15.3231 47.535 15.0184 48.0428 14.6122C48.1951 14.5107 48.2967 14.3583 48.3982 14.206L50.023 15.12ZM48.449 11.5149C48.1443 9.94081 47.0273 9.28072 45.8086 9.28072C44.3361 9.28072 43.3206 10.1439 43.0667 11.5149H48.449Z" fill="#7E7E81"/>
</g>
</g>
<defs>
<clipPath id="clip0_9864_1807">
<rect width="106.376" height="24.3725" fill="white" transform="translate(6 4)"/>
</clipPath>
</defs>
</svg>
