<svg width="131" height="24" viewBox="0 0 131 24" fill="none" xmlns="http://www.w3.org/2000/svg">
<path d="M37.7948 6.63408H32.9613V18.5896H37.7948C41.4156 18.5896 43.9775 16.096 43.9775 12.6118C43.9775 9.11058 41.4156 6.63408 37.7948 6.63408ZM37.641 15.5836H36.2747V9.65712H37.641C39.4173 9.65712 40.5958 10.8356 40.5958 12.6118C40.5958 14.371 39.4173 15.5836 37.641 15.5836ZM49.873 9.33261C48.7799 9.33261 47.9943 9.64004 47.3453 10.3915L46.85 9.36677H44.7151V18.5896H47.8918V13.9099C47.8918 12.7314 48.37 12.2361 49.4802 12.2361H50.727V9.33261H49.873ZM58.4483 9.36677L58.1238 10.0841C57.3723 9.45216 56.3988 9.0935 55.3057 9.0935C52.4876 9.0935 50.4722 11.1259 50.4722 13.9782C50.4722 16.8475 52.4876 18.897 55.3057 18.897C56.3817 18.897 57.3381 18.5554 58.0896 17.9406L58.3629 18.5896H60.8223V9.36677H58.4483ZM55.7327 16.096C54.5371 16.096 53.6661 15.1908 53.6661 13.9782C53.6661 12.7826 54.5371 11.8945 55.7327 11.8945C56.9282 11.8945 57.7993 12.7826 57.7993 13.9782C57.7993 15.1908 56.9282 16.096 55.7327 16.096ZM69.454 9.36677L69.0441 10.1524C68.2584 9.48632 67.2507 9.07642 66.1406 9.07642C63.4933 9.07642 61.5292 11.0918 61.5292 13.722C61.5292 16.3864 63.4933 18.3505 66.1406 18.3505C67.0287 18.3505 67.8485 18.0943 68.5488 17.6673V17.9406C68.5488 19.0337 67.6948 19.7168 66.6188 19.7168C65.8502 19.7168 65.0646 19.3753 64.8425 18.7604H61.7853C62.2123 20.9465 64.0398 22.2617 66.653 22.2617C69.6931 22.2617 71.5889 20.4683 71.5889 17.5819V9.38385L69.454 9.36677ZM66.67 15.7374C65.5086 15.7374 64.6888 14.9005 64.6888 13.722C64.6888 12.5606 65.5257 11.7066 66.67 11.7066C67.8143 11.7066 68.6342 12.5606 68.6342 13.722C68.6342 14.9005 67.8143 15.7374 66.67 15.7374ZM77.4605 18.897C80.4665 18.897 82.6355 16.8304 82.6355 13.9782C82.6355 11.1259 80.4665 9.07642 77.4605 9.07642C74.4545 9.07642 72.3025 11.1259 72.3025 13.9782C72.3025 16.8304 74.4545 18.897 77.4605 18.897ZM77.4605 16.0448C76.3162 16.0448 75.4793 15.2079 75.4793 13.9953C75.4793 12.7656 76.3162 11.9287 77.4605 11.9287C78.6219 11.9287 79.4588 12.7826 79.4588 13.9953C79.4588 15.2079 78.6219 16.0448 77.4605 16.0448ZM88.9063 9.11058C87.7108 9.11058 86.686 9.55464 86.0028 10.3232L85.5759 9.36677H83.3385V18.5896H86.5152V13.6708C86.5152 12.4923 87.0788 11.8091 88.0694 11.8091C88.8722 11.8091 89.2821 12.3386 89.2821 13.4146V18.5896H92.4588V12.9705C92.4588 10.6306 91.0412 9.11058 88.9063 9.11058ZM99.6268 9.52048H97.4577V8.90563C97.4577 8.4274 97.731 8.15413 98.2092 8.15413H99.6097V5.71179H97.3894C95.4423 5.71179 94.4176 6.78779 94.4176 8.64944V9.52048H92.8463L92.8634 12.0141H94.3834V18.5896H97.5602V12.0141H99.6268V9.52048ZM100.065 18.5896H103.241V6.0363H100.065V18.5896ZM110.701 9.36677L108.873 14.4564L106.909 9.36677H103.459L107.268 17.8381C106.841 18.9824 106.482 19.3069 105.269 19.3069H104.381V22.0225H105.474C107.865 22.0225 108.993 21.0149 110.239 18.1797L114.116 9.36677H110.701ZM123.892 18.5896H127.218L122.83 7.65883H119.879L115.584 18.5896H118.817L119.426 16.8251H123.298L123.892 18.5896ZM122.565 14.4671H120.16L121.347 11.0786L122.565 14.4671ZM127.564 18.5896H130.624V7.65883H127.564V18.5896Z" fill="#7E7E81"/>
<path d="M12.5936 11.7935C12.5936 11.7935 13.3422 11.276 13.5706 11.1526C13.7767 11.0413 13.9589 10.9239 14.114 10.8676C16.3493 10.0569 17.6356 10.1156 18.4848 10.1522C19.8734 10.1208 20.899 10.1276 22.2442 9.23019C22.739 8.90007 23.1078 8.41753 23.3543 7.89922C24.2758 5.9593 23.9386 3.56305 22.3434 1.95469C20.7471 0.345399 18.3684 0.00613296 16.4436 0.937344C15.9307 1.18546 15.481 1.57187 15.1268 2.0547C14.1764 3.35021 14.1758 4.37392 14.2123 5.84484C14.1767 6.63376 14.3127 8.00301 13.5068 10.2554C13.4503 10.4132 13.3357 10.5924 13.2231 10.8023C13.1008 11.0302 12.5936 11.7935 12.5936 11.7935Z" fill="#7E7E81"/>
<path d="M12.1836 12.2063C12.1836 12.2063 11.4349 12.7238 11.2065 12.8472C11.0005 12.9585 10.8183 13.0759 10.6632 13.1322C8.42791 13.9429 7.14161 13.8843 6.29243 13.8476C4.90378 13.879 3.87817 13.8722 2.53298 14.7696C2.03814 15.0998 1.66925 15.5823 1.42302 16.1006C0.501383 18.0405 0.838441 20.4368 2.43377 22.0451C4.03005 23.6545 6.40881 23.9937 8.33363 23.0624C8.84645 22.8145 9.29615 22.428 9.65037 21.9451C10.6007 20.6496 10.6014 19.6259 10.5649 18.155C10.6005 17.366 10.4645 15.9968 11.2704 13.7444C11.3269 13.5866 11.4415 13.4074 11.5541 13.1976C11.6764 12.9696 12.1836 12.2063 12.1836 12.2063Z" fill="#7E7E81"/>
<path d="M14.1857 22.093C16.4257 24.3513 20.0573 24.3513 22.2973 22.093C24.5372 19.8348 24.5372 16.1735 22.2973 13.9152C20.0573 11.657 16.4257 11.657 14.1857 13.9152C11.9457 16.1735 11.9457 19.8348 14.1857 22.093Z" fill="#7E7E81"/>
<path d="M2.4799 10.0848C4.71986 12.3431 8.35153 12.3431 10.5915 10.0848C12.8315 7.82661 12.8315 4.16529 10.5915 1.90706C8.35153 -0.351181 4.71986 -0.351181 2.4799 1.90706C0.239935 4.16529 0.239935 7.82661 2.4799 10.0848Z" fill="#7E7E81"/>
</svg>
