<svg width="158" height="32" viewBox="0 0 158 32" fill="none" xmlns="http://www.w3.org/2000/svg">
<path d="M8.23096 2H36.5636V30.0003H8.23096V2Z" fill="#7E7E81"/>
<path d="M87.5766 7.54468C87.8357 7.56778 87.8828 7.86811 87.9063 8.05293C87.977 9.00014 88.0005 9.92424 88.0005 10.8714C88.0477 11.7724 88.0476 12.6503 88.0476 13.5513C88.5658 13.1586 89.0604 12.7428 89.6727 12.5117C90.6383 12.0959 91.8159 12.0959 92.758 12.581C93.7707 13.0893 94.4773 14.0596 94.8305 15.0992C95.1603 16.0926 95.2545 17.1553 95.1838 18.195C95.0896 19.4194 94.7599 20.6438 94.0298 21.6372C93.6058 22.2148 93.0406 22.7231 92.3341 22.9772C91.2036 23.3699 89.9553 23.2313 88.9426 22.6076C88.6364 22.4227 88.3538 22.1455 88.0712 21.9145C87.9534 22.2841 87.8592 22.6307 87.7415 23.0003C87.1998 23.0003 86.6817 23.0465 86.14 22.9541C86.3519 22.1224 86.3519 21.2445 86.3755 20.3897C86.4226 17.3633 86.3755 14.3368 86.3519 11.3335C86.2813 10.1553 86.3755 8.97703 86.1635 7.8219C86.6581 7.68329 87.1056 7.54468 87.5766 7.54468ZM91.5333 13.7824C91.0623 13.69 90.5912 13.69 90.1202 13.7362C89.2723 13.8517 88.5893 14.4292 88.0476 15.0299C88.0241 15.2378 88.0477 15.4227 88.0241 15.6306V20.4359C88.0005 20.5976 88.1419 20.7131 88.2596 20.8056C89.0839 21.591 90.3086 21.9607 91.4391 21.6834C91.9808 21.5448 92.4518 21.1983 92.7109 20.7131C93.1113 20.0432 93.2526 19.2577 93.3232 18.4953C93.3703 17.9177 93.441 17.3171 93.3703 16.7395C93.3468 16.0695 93.2055 15.3533 92.8522 14.7758C92.5696 14.2906 92.0985 13.8979 91.5333 13.7824ZM98.5517 7.96052C98.8814 7.84501 99.2582 7.86811 99.588 8.00673C99.8941 8.19155 100.106 8.46878 100.247 8.79222C100.459 9.48529 99.8941 10.2708 99.164 10.3632C98.5988 10.4325 97.9865 10.1091 97.8216 9.5546C97.5861 8.95393 97.9393 8.21465 98.5517 7.96052ZM48.316 9.23116C49.1167 8.6998 50.0588 8.28396 51.048 8.28396C52.0607 8.26085 53.097 8.33016 54.0155 8.76911C54.3923 8.93083 54.7691 9.11565 55.0989 9.39288C54.8634 9.78563 54.5572 10.1322 54.2746 10.4787C53.8977 10.2708 53.5445 10.0398 53.1441 9.90114C52.1549 9.5546 51.0244 9.48529 50.0353 9.87803C49.211 10.2015 48.528 10.8252 48.104 11.5876C47.8214 12.119 47.5623 12.6965 47.4446 13.2972C47.3504 13.8748 47.3033 14.4754 47.2797 15.0761C47.2562 15.8616 47.2091 16.6702 47.2562 17.4557C47.3975 18.5646 47.7743 19.6735 48.5515 20.5052C49.211 21.2676 50.2001 21.7066 51.2128 21.799C51.731 21.8221 52.2727 21.8221 52.7908 21.7066C53.4267 21.5679 53.9684 21.2445 54.5572 20.9904C54.8869 21.3138 55.1931 21.6835 55.4757 22.0762C55.0518 22.3072 54.6043 22.5382 54.1333 22.7231C52.9086 23.2082 51.519 23.2313 50.2237 23.0927C49.2816 22.9079 48.4102 22.4227 47.6801 21.8221C46.8322 21.1059 46.2199 20.1587 45.8666 19.1191C45.6075 18.426 45.4898 17.6867 45.4191 16.9705C45.3956 16.4161 45.3249 15.8847 45.3956 15.3302C45.4191 14.2906 45.584 13.2741 46.0079 12.3038C46.479 11.1025 47.2326 9.97045 48.316 9.23116Z" fill="#7E7E81"/>
<path d="M16.6375 8.97795C16.7552 8.95484 16.8965 8.90864 17.0143 8.90864C17.6266 8.88554 18.239 8.93174 18.8513 8.95484C18.9455 8.93174 18.9926 9.02415 19.0162 9.09346C19.9347 10.9648 20.8532 12.8592 21.7953 14.7305C22.0072 15.1232 22.1721 15.516 22.4076 15.8856C22.596 15.5853 22.7609 15.2618 22.9257 14.9384C23.9856 12.9285 24.9747 10.9186 26.011 8.90864C26.694 8.93174 27.377 8.86243 28.06 8.97795C27.9423 9.37069 27.7067 9.69413 27.5419 10.0638C26.1759 12.6282 24.7863 15.1925 23.4203 17.7569C23.3732 17.8493 23.3497 17.9648 23.3497 18.0804C23.3497 19.9055 23.3497 21.7537 23.3497 23.5788C22.6902 23.5788 22.0308 23.5788 21.3713 23.5788C21.3713 21.7999 21.3713 19.9979 21.3713 18.219C21.3713 18.0342 21.3949 17.8262 21.2771 17.6414C20.0053 15.308 18.7571 12.9747 17.4853 10.6182C17.2027 10.0638 16.8965 9.53241 16.6375 8.97795Z" fill="white"/>
<path d="M126.202 9.78532C126.744 9.6236 127.309 9.48499 127.875 9.39258C127.78 10.4091 127.71 11.4256 127.686 12.4652C128.558 12.4883 129.452 12.4883 130.324 12.5114C130.183 12.9042 130.018 13.2969 129.829 13.6666C129.076 13.6666 128.346 13.6666 127.592 13.6666C127.592 14.6138 127.592 15.561 127.592 16.5082C127.592 17.2474 127.639 18.0098 127.615 18.7491C127.639 19.6039 127.592 20.4587 127.686 21.2904C127.71 21.6369 128.039 21.8911 128.346 21.9835C128.887 22.099 129.452 22.0528 129.971 21.9373C130.112 22.2376 130.183 22.5841 130.159 22.9076C129.688 23.1617 129.123 23.2079 128.581 23.2541C127.827 23.2772 126.98 23.1617 126.438 22.5841C125.99 22.1683 126.038 21.5214 125.967 20.967C125.92 19.7656 125.943 18.5412 125.92 17.3399C125.92 16.1154 125.92 14.8679 125.92 13.6435C125.449 13.6435 124.978 13.6435 124.507 13.6435C124.483 13.2507 124.483 12.8349 124.507 12.4421C124.978 12.4421 125.425 12.4421 125.896 12.4421C126.061 11.5642 126.061 10.6632 126.202 9.78532ZM61.8121 12.2111C62.2596 12.2342 62.7071 12.2111 63.131 12.3497C64.1202 12.6731 64.9445 13.3431 65.4626 14.221C65.9101 14.9834 66.2163 15.8382 66.2398 16.7161C66.2869 17.8943 66.334 19.1188 65.9572 20.2508C65.6039 21.3135 64.8503 22.2607 63.814 22.7921C62.8013 23.3003 61.5766 23.4158 60.4932 23.1155C59.5041 22.8614 58.6562 22.2145 58.091 21.3828C57.4551 20.4818 57.2431 19.396 57.2195 18.3102C57.196 17.2705 57.1724 16.2078 57.5257 15.2144C57.8554 14.2441 58.4913 13.3431 59.3863 12.7887C59.7867 12.5345 60.2342 12.3266 60.7052 12.2342C61.082 12.188 61.4588 12.2111 61.8121 12.2111ZM60.9643 13.551C60.399 13.6897 59.8573 14.0131 59.5512 14.4982C59.1037 15.2144 59.033 16.0692 58.9859 16.8778C58.9388 17.4785 58.9859 18.0791 59.033 18.6798C59.1272 19.396 59.2685 20.1584 59.6218 20.8052C59.9986 21.4983 60.7994 21.8449 61.5766 21.8911C62.3067 21.9373 63.1075 21.7524 63.6256 21.198C64.0495 20.7359 64.285 20.1584 64.3792 19.5346C64.497 18.7722 64.4735 18.0098 64.4499 17.2475C64.4264 16.462 64.3557 15.6303 64.026 14.891C63.8376 14.4289 63.4843 14.0362 63.0368 13.8052C62.4245 13.4355 61.6473 13.3893 60.9643 13.551ZM69.1838 12.5576C69.6784 12.3959 70.173 12.2804 70.6911 12.188C70.9031 12.65 71.0208 13.1583 71.0679 13.6666C71.4212 13.4817 71.6803 13.2045 72.01 12.9966C72.7401 12.4652 73.6351 12.1418 74.5536 12.188C74.7655 12.2111 74.9539 12.2573 75.1424 12.3497C75.4485 12.5114 75.7783 12.6731 76.0373 12.9042C76.2964 13.1583 76.4848 13.4817 76.6732 13.8052C77.0971 13.6203 77.4033 13.2969 77.7801 13.0428C78.416 12.6038 79.1461 12.2573 79.9469 12.188C80.677 12.1187 81.4071 12.3497 81.9488 12.8349C82.1843 13.0659 82.4434 13.2969 82.5611 13.5972C82.6789 13.8976 82.726 14.221 82.7495 14.5444C82.8673 16.2309 82.7966 17.9405 82.8673 19.627C82.8673 20.759 82.8673 21.868 82.8673 23C82.3021 23 81.7368 23.0231 81.148 23C81.148 21.3135 81.148 19.627 81.148 17.9405C81.148 16.8547 81.1716 15.7689 81.0774 14.6831C81.0303 14.3365 80.8419 14.0131 80.5592 13.8052C80.2295 13.5972 79.8056 13.6203 79.4288 13.6435C78.7458 13.7128 78.2041 14.1286 77.6859 14.5213C77.4504 14.7293 77.1914 14.9141 76.9558 15.122C76.8852 15.1682 76.9087 15.2837 76.9087 15.353C76.9087 17.8943 76.9087 20.4356 76.9087 22.9769C76.3435 22.9769 75.7783 22.9769 75.213 22.9769V17.0395C75.213 16.5544 75.213 16.0692 75.1895 15.6072C75.1659 15.122 75.213 14.5907 74.9775 14.1517C74.6242 13.6665 73.9412 13.5741 73.3995 13.7128C72.5517 13.9207 71.798 14.4289 71.1621 15.0065C71.0679 15.0758 71.0679 15.1913 71.0679 15.3068C71.0679 17.8712 71.0679 20.4356 71.0679 23C70.5733 23.0231 70.0787 23.0231 69.5842 23C69.5371 20.3894 69.5606 17.7557 69.49 15.122C69.4664 14.5213 69.4664 13.9207 69.3958 13.3431C69.3251 13.0659 69.2309 12.8118 69.1838 12.5576ZM98.1523 12.4652C98.694 12.3959 99.2357 12.3035 99.7774 12.188C99.8481 13.6665 99.8245 15.1451 99.8245 16.6237C99.8245 18.7491 99.8245 20.8746 99.8245 23C99.2593 23.0231 98.694 23.0231 98.1288 23C98.1052 19.9505 98.1288 16.924 98.1288 13.8745C98.1523 13.4124 98.1288 12.9273 98.1523 12.4652ZM119.985 12.2573C121.139 12.4652 122.128 13.5048 122.151 14.6831C122.222 16.4389 122.128 18.1947 122.151 19.9504V20.4818C122.151 20.8284 122.175 21.1749 122.269 21.5214C122.34 21.868 122.67 22.0528 122.929 22.2607C122.693 22.5841 122.481 22.9538 122.175 23.231C121.987 23.3927 121.751 23.2079 121.61 23.1155C121.209 22.8152 120.927 22.3762 120.691 21.9373C120.314 22.1452 120.055 22.4455 119.679 22.6535C119.066 23.0462 118.336 23.2772 117.582 23.2541C116.923 23.2772 116.24 23.1617 115.651 22.8614C114.686 22.3531 114.144 21.2442 114.167 20.2046C114.167 19.1881 114.686 18.1947 115.51 17.594C116.499 16.8547 117.771 16.6237 118.972 16.5313C119.514 16.4851 120.079 16.4851 120.644 16.462C120.668 15.9306 120.621 15.3992 120.55 14.8679C120.479 14.4289 120.267 13.9669 119.843 13.7359C119.349 13.4817 118.76 13.4586 118.195 13.551C117.159 13.6666 116.193 14.1055 115.345 14.7062C115.11 14.3827 114.874 14.0824 114.686 13.7359C114.591 13.5741 114.733 13.4355 114.874 13.3662C116.005 12.7424 117.253 12.2111 118.572 12.2342H119.137C119.419 12.2111 119.702 12.2111 119.985 12.2573ZM119.278 17.5478C118.76 17.594 118.218 17.6171 117.724 17.7557C117.111 17.9174 116.546 18.3102 116.216 18.8415C116.028 19.1419 116.028 19.5115 116.005 19.858C116.005 20.2277 115.957 20.6435 116.099 20.9901C116.24 21.3597 116.499 21.7062 116.876 21.8449C117.3 22.0297 117.794 22.0528 118.265 22.0066C118.831 21.9373 119.325 21.6369 119.749 21.3135C120.102 21.0132 120.456 20.6435 120.479 20.1584C120.55 19.3036 120.526 18.4488 120.55 17.594C120.126 17.594 119.702 17.5016 119.278 17.5478ZM137.743 12.2804C138.708 12.5114 139.58 13.089 140.145 13.8745C140.616 14.5213 140.922 15.2606 141.063 16.0461C141.181 16.7854 141.228 17.5478 141.181 18.2871C141.158 19.5115 140.781 20.7359 140.027 21.7062C139.415 22.4917 138.473 22.9538 137.507 23.1386C136.33 23.3465 135.058 23.1386 134.069 22.4455C133.197 21.8449 132.656 20.8746 132.349 19.9042C132.185 19.396 132.161 18.8877 132.114 18.3564C132.09 17.4785 132.09 16.6006 132.255 15.7458C132.491 14.7755 132.985 13.8283 133.739 13.1352C134.304 12.6269 135.011 12.3035 135.764 12.2111C136.424 12.1418 137.083 12.1649 137.743 12.2804ZM135.882 13.5279C135.081 13.6203 134.445 14.2441 134.186 14.9603C133.857 15.7227 133.904 16.5544 133.88 17.363C133.904 18.1254 133.904 18.8877 134.045 19.6501C134.139 20.1584 134.304 20.6666 134.657 21.0594C134.987 21.4521 135.482 21.7062 135.976 21.7987C136.165 21.8449 136.377 21.868 136.565 21.868H136.754L136.942 21.8449C137.342 21.7987 137.719 21.6831 138.072 21.4983C138.496 21.2673 138.803 20.8283 138.967 20.3894C139.179 19.858 139.203 19.2805 139.25 18.726C139.274 18.056 139.297 17.3861 139.25 16.7161C139.203 16.023 139.109 15.3068 138.779 14.6831C138.473 14.221 138.049 13.8283 137.531 13.5972C137.036 13.4586 136.447 13.4586 135.882 13.5279ZM144.078 12.5807C144.596 12.4421 145.091 12.2804 145.609 12.1649C145.892 12.6731 145.939 13.2738 145.962 13.8283C146.221 13.6434 146.433 13.3893 146.669 13.1583C147.399 12.4421 148.482 12.0032 149.519 12.188V12.3266C149.283 12.8118 149.142 13.3431 148.93 13.8514C148.906 13.9438 148.765 13.9207 148.694 13.9207C148.247 13.9207 147.752 13.9207 147.352 14.1517C146.951 14.3827 146.598 14.6831 146.315 15.0527C146.033 15.3992 146.08 15.8844 146.08 16.3002C146.056 16.9009 146.033 17.5016 146.056 18.1022C146.056 19.7194 146.056 21.3597 146.056 22.9769C145.491 23 144.926 23 144.361 22.9769C144.361 21.1749 144.361 19.3498 144.361 17.5478C144.361 16.3233 144.361 15.0758 144.314 13.8514C144.267 13.4355 144.125 13.0197 144.078 12.5807ZM103.169 12.6038C103.663 12.4421 104.182 12.2573 104.7 12.2573C104.888 12.7424 105.006 13.2507 105.077 13.759C105.524 13.4817 105.901 13.1121 106.372 12.858C107.267 12.3497 108.35 11.9801 109.363 12.3497C109.952 12.5576 110.541 12.8811 110.894 13.4124C111.176 13.7821 111.247 14.2903 111.294 14.7524C111.388 16.3927 111.365 18.0329 111.365 19.6963C111.365 20.8052 111.388 21.8911 111.388 23C110.823 23.0231 110.258 23.0231 109.693 23C109.693 21.198 109.646 19.3729 109.646 17.5709C109.622 16.5544 109.669 15.561 109.551 14.5444C109.386 14.0593 108.915 13.6666 108.397 13.6435C108.02 13.6203 107.62 13.6203 107.243 13.759C106.443 14.0593 105.712 14.5444 105.053 15.0758C105.029 17.7095 105.053 20.3663 105.053 23C104.558 23 104.064 23.0231 103.569 23C103.569 21.4983 103.522 19.9967 103.522 18.495C103.499 16.9471 103.522 15.4223 103.428 13.8745C103.404 13.4355 103.263 13.0197 103.169 12.6038Z" fill="#7E7E81"/>
</svg>
