<svg width="112" height="32" viewBox="0 0 112 32" fill="none" xmlns="http://www.w3.org/2000/svg">
<path d="M19.2351 25.3163L17.5414 23.0835L12.8825 16.93L18.1719 9.55859H15.3989L10.6438 16.1822V9.55859H8.39453V25.4659H10.6438V17.7152L16.5209 25.4659H19.3473L19.2351 25.3163Z" fill="#7E7E81"/>
<path d="M30.5379 16.9674L24.0998 25.4659H21.2734L27.7382 16.93L23.464 10.9741L22.4489 9.55859H25.2218L30.5379 16.9674Z" fill="#7E7E81"/>
<path d="M25.2165 9.55859L19.6546 23.8847L17.9609 21.652L22.3955 9.55859H25.2165Z" fill="#7E7E81"/>
<path d="M42.3493 9.43698H45.1863V16.1941H45.3199L51.9236 9.43698H55.7544L48.2958 16.803L56.2512 25.387H52.2602L45.3466 17.5455H45.1863V25.387H42.3493V9.43698ZM64.8478 14.7198C65.7401 15.238 66.4453 15.943 66.9636 16.8351C67.4818 17.7271 67.7383 18.6993 67.7383 19.7516C67.7383 20.8039 67.4818 21.7761 66.9636 22.6681C66.4453 23.5602 65.7401 24.2652 64.8478 24.7834C63.9556 25.3015 62.9832 25.5579 61.9306 25.5579C60.8781 25.5579 59.9057 25.2962 59.0135 24.7834C58.1212 24.2652 57.416 23.5602 56.8977 22.6681C56.3795 21.7761 56.123 20.8039 56.123 19.7516C56.123 18.6993 56.3848 17.7271 56.8977 16.8351C57.416 15.943 58.1212 15.238 59.0135 14.7198C59.9057 14.2017 60.8781 13.9453 61.9306 13.9453C62.9778 13.9399 63.9502 14.2017 64.8478 14.7198ZM59.879 17.647C59.3234 18.2079 59.0455 18.913 59.0455 19.7516C59.0455 20.5902 59.3234 21.2953 59.879 21.8562C60.4347 22.4171 61.1239 22.7002 61.952 22.7002C62.7801 22.7002 63.464 22.4171 64.0037 21.8562C64.5433 21.2953 64.8158 20.5902 64.8158 19.7516C64.8158 18.913 64.5433 18.2079 64.0037 17.647C63.464 17.0861 62.7801 16.803 61.952 16.803C61.1239 16.803 60.4347 17.0808 59.879 17.647ZM79.2413 22.6681C78.7231 23.5602 78.0232 24.2652 77.1362 24.7834C76.2493 25.3015 75.2823 25.5579 74.2298 25.5579C73.1772 25.5579 72.2102 25.2962 71.3233 24.7834C70.4364 24.2652 69.7311 23.5602 69.2075 22.6681C68.6839 21.7761 68.4168 20.8039 68.4168 19.7516C68.4168 18.6993 68.6786 17.7271 69.2075 16.8351C69.7311 15.943 70.4364 15.238 71.3233 14.7198C72.2102 14.2017 73.1772 13.9453 74.2298 13.9453C75.325 13.9453 76.2707 14.2284 77.0668 14.7999V9.6186H80.016V19.7569C80.0214 20.8039 79.7596 21.7761 79.2413 22.6681ZM72.1568 17.647C71.6171 18.2079 71.3447 18.913 71.3447 19.7516C71.3447 20.5902 71.6171 21.2953 72.1568 21.8562C72.6964 22.4171 73.3803 22.7002 74.2084 22.7002C75.0365 22.7002 75.7257 22.4171 76.2814 21.8562C76.8371 21.2953 77.1149 20.5902 77.1149 19.7516C77.1149 18.913 76.8371 18.2079 76.2814 17.647C75.7257 17.0861 75.0365 16.803 74.2084 16.803C73.3803 16.803 72.6964 17.0808 72.1568 17.647ZM81.5654 16.8778C82.0676 15.9858 82.7569 15.27 83.6384 14.7358C84.5147 14.2017 85.4817 13.9346 86.5342 13.9346C87.4959 13.9346 88.4202 14.159 89.3071 14.597C90.194 15.0403 90.926 15.6813 91.503 16.5253C92.0801 17.3693 92.3846 18.3574 92.4166 19.5005C92.4327 19.9813 92.4006 20.446 92.3258 20.8947H83.9643C84.0979 21.4502 84.3971 21.8882 84.8566 22.2141C85.3161 22.5346 85.8717 22.7002 86.5342 22.7002C86.9991 22.7002 87.3784 22.6414 87.6722 22.5185C87.9661 22.401 88.2332 22.2408 88.4737 22.0431L91.9679 22.0645C91.503 23.1008 90.7871 23.9394 89.8254 24.5857C88.8637 25.2321 87.7951 25.5526 86.6251 25.5526C85.5565 25.5526 84.5841 25.2908 83.6972 24.778C82.8103 24.2599 82.1104 23.5602 81.5921 22.6735C81.0739 21.7867 80.8174 20.8199 80.8174 19.7676C80.8068 18.7367 81.0579 17.7752 81.5654 16.8778ZM89.2804 18.5604C89.056 18.037 88.6981 17.6096 88.2119 17.2891C87.7257 16.9686 87.1914 16.803 86.6251 16.803C85.9946 16.803 85.455 16.9633 85.0009 17.2784C84.5521 17.5936 84.2048 18.0209 83.9643 18.5604H89.2804ZM102.461 22.5239V25.387H93.4264V22.5239L98.5181 16.9847H93.6508V14.1216H102.258V16.9793L97.145 22.5185H102.461V22.5239ZM104.096 12.4176C103.759 12.0811 103.588 11.6644 103.588 11.1677C103.588 10.6869 103.759 10.2756 104.096 9.93909C104.433 9.60257 104.849 9.43164 105.346 9.43164C105.827 9.43164 106.238 9.60257 106.575 9.93909C106.912 10.2756 107.083 10.6869 107.083 11.1677C107.083 11.6644 106.912 12.0811 106.575 12.4176C106.238 12.7541 105.827 12.925 105.346 12.925C104.849 12.925 104.433 12.7595 104.096 12.4176ZM103.882 14.1216H106.81V25.3816H103.882V14.1216ZM36.2478 25.5472H35.5586V9.47972H36.2478V25.5472Z" fill="#7E7E81"/>
</svg>
